<!DOCTYPE svg PUBLIC "-//W3C//DTD SVG 20010904//EN" "http://www.w3.org/TR/2001/REC-SVG-20010904/DTD/svg10.dtd">
<svg version="1.0" xmlns="http://www.w3.org/2000/svg" width="256px" height="256px" viewBox="0 0 2560 2560" preserveAspectRatio="xMidYMid meet">
<g id="layer101" fill="#000000" stroke="none">
 <path d="M59 2059 c-14 -14 -18 -26 -12 -37 4 -9 9 -297 11 -640 2 -613 2 -624 -18 -649 -24 -31 -25 -46 -4 -67 13 -14 51 -16 255 -16 l239 0 65 39 65 40 0 -28 c0 -15 5 -32 12 -39 17 -17 249 -17 266 0 9 9 12 108 12 384 0 318 2 373 15 384 13 11 15 6 15 -37 0 -28 7 -58 16 -71 14 -21 23 -22 130 -22 l114 0 0 -261 c0 -172 4 -268 11 -282 6 -12 30 -41 52 -64 l41 -43 215 0 c207 0 216 1 238 22 l23 22 16 -22 c14 -21 23 -22 134 -22 94 0 122 3 134 16 13 13 16 42 16 165 0 126 2 149 15 149 13 0 15 -23 15 -149 0 -123 3 -152 16 -165 23 -23 255 -23 278 0 14 14 16 69 16 463 l0 448 -22 20 c-34 30 -290 209 -311 216 -12 5 -53 -21 -142 -88 -68 -52 -129 -95 -136 -95 -6 0 -28 13 -48 29 -67 52 -172 121 -186 121 -7 0 -21 -7 -29 -16 -13 -13 -16 -42 -16 -165 0 -126 -2 -149 -15 -149 -13 0 -15 23 -15 149 0 123 -3 152 -16 165 -28 29 -40 23 -188 -92 -44 -33 -84 -59 -88 -56 -5 3 -72 50 -150 105 -77 54 -144 99 -148 99 -10 0 -272 -199 -282 -214 -4 -6 -8 -57 -8 -112 l0 -101 -155 81 -155 81 0 113 c0 98 3 117 19 139 16 19 18 29 10 46 -14 29 -268 227 -291 227 -5 0 -17 -9 -29 -21z m168 -124 c104 -81 124 -101 105 -103 -22 -3 -22 -6 -22 -150 l0 -147 165 -88 165 -89 -2 -301 -3 -301 -55 -32 -55 -33 -232 -1 c-128 0 -233 4 -233 8 0 5 9 17 20 27 20 18 20 28 18 649 -2 352 -7 639 -12 650 -15 30 5 18 141 -89z m873 -261 l150 -106 0 -114 0 -114 -115 0 -114 0 -3 89 -3 90 -52 -42 -52 -42 0 -372 -1 -373 -105 0 -105 0 0 449 0 449 123 95 c67 52 123 96 124 96 1 1 70 -47 153 -105z m1178 -7 l142 -100 0 -439 0 -438 -115 0 -115 0 0 165 0 165 -55 0 -55 0 0 -165 0 -165 -110 0 -110 0 0 290 0 290 165 0 165 0 0 126 0 125 -55 -43 c-53 -41 -55 -45 -55 -90 l0 -48 -110 0 -110 0 1 123 0 122 127 96 c70 53 132 94 137 91 6 -3 74 -50 153 -105z m-778 -92 l0 -165 55 0 55 0 0 166 c0 137 2 165 14 161 7 -3 59 -38 114 -79 l101 -73 1 -410 0 -409 -37 -38 -37 -38 -204 0 -204 0 -39 43 -38 42 0 405 0 405 102 77 c56 43 105 78 110 78 4 0 7 -74 7 -165z m650 -200 c0 -64 0 -65 -27 -65 -21 0 -24 3 -15 12 7 7 12 30 12 53 0 34 13 65 27 65 2 0 3 -29 3 -65z"/>
 <path d="M300 1100 l0 -200 70 0 70 0 0 163 0 163 -63 37 c-35 20 -67 37 -70 37 -4 0 -7 -90 -7 -200z m100 -27 l0 -133 -30 0 -30 0 0 150 0 149 30 -17 30 -17 0 -132z"/>
 <path d="M1500 1045 l0 -145 55 0 55 0 0 145 0 145 -55 0 -55 0 0 -145z m70 0 c0 -87 -3 -105 -15 -105 -12 0 -15 18 -15 105 0 87 3 105 15 105 12 0 15 -18 15 -105z"/>
 </g>

</svg>