<!DOCTYPE svg PUBLIC "-//W3C//DTD SVG 20010904//EN" "http://www.w3.org/TR/2001/REC-SVG-20010904/DTD/svg10.dtd">
<svg version="1.0" xmlns="http://www.w3.org/2000/svg" width="256px" height="256px" viewBox="0 0 2560 2560" preserveAspectRatio="xMidYMid meet">
<g id="layer101" fill="#000000" stroke="none">
<path d="M719 2078 c-11 -13 -32 -38 -46 -55 l-25 -33 -58 50 c-32 28 -67 50 -79 50 -14 0 -70 -45 -156 -126 l-135 -126 0 -548 0 -548 42 -54 c23 -29 46 -56 52 -60 6 -4 106 -8 223 -8 l211 0 41 46 41 47 0 -35 c0 -19 5 -39 12 -46 18 -18 252 -17 267 1 7 10 12 136 13 402 2 300 6 389 16 393 9 3 12 -79 12 -386 0 -342 2 -393 16 -406 12 -13 40 -16 135 -16 l119 0 0 -104 c0 -138 -3 -136 150 -136 153 0 150 -2 150 136 l0 104 269 0 c232 0 272 2 285 16 13 12 16 41 16 150 0 164 -6 174 -100 174 l-60 0 -2 322 -3 322 -95 74 c-150 117 -166 125 -194 96 -14 -13 -16 -65 -16 -415 l0 -399 -50 0 -50 0 0 315 0 314 -72 54 c-100 73 -179 127 -187 127 -4 0 -16 -6 -26 -14 -15 -11 -18 -25 -16 -76 l2 -62 -33 23 c-18 13 -84 61 -146 106 -63 46 -118 83 -122 83 -5 0 -66 -45 -135 -100 -68 -55 -127 -100 -130 -100 -3 0 -5 42 -5 93 0 81 -3 96 -20 112 -18 16 -20 31 -20 122 0 90 -3 106 -20 123 -26 26 -44 25 -71 -2z m-69 -148 c4 0 31 26 59 58 l51 57 0 -110 c0 -99 2 -111 20 -123 20 -12 20 -23 20 -535 l0 -522 -41 -48 -41 -47 -186 1 -187 0 -38 49 -37 50 0 529 0 528 121 112 121 111 64 -55 c36 -30 69 -55 74 -55z m621 -266 l138 -99 0 -452 1 -453 -105 0 -105 0 0 440 c0 242 -3 440 -6 440 -3 0 -32 -23 -65 -51 l-59 -52 0 -388 0 -389 -100 0 -100 0 0 458 0 457 123 97 c67 54 126 96 131 95 6 -2 72 -48 147 -103z m717 -17 l92 -69 0 -334 0 -334 80 0 80 0 0 -125 0 -125 -265 0 -265 0 0 125 0 125 80 0 80 0 0 411 c0 325 3 409 13 403 6 -4 54 -39 105 -77z m-410 -16 l102 -74 0 -449 0 -448 -110 0 -110 0 0 526 c0 289 4 524 8 522 5 -1 54 -36 110 -77z m102 -1111 l0 -90 -110 0 -110 0 0 90 0 90 110 0 110 0 0 -90z"/>
<path d="M467 1673 c-4 -3 -7 -190 -7 -415 l0 -408 65 0 65 0 0 374 0 374 -49 41 c-49 41 -62 47 -74 34z m73 -434 c0 -295 -2 -339 -15 -339 -13 0 -15 46 -15 351 0 311 2 350 15 339 13 -11 15 -62 15 -351z"/>
</g>
<g id="layer102" fill="#363636" stroke="none">
<path d="M706 2000 c-28 -33 -52 -60 -54 -60 -3 0 -36 25 -74 56 l-68 57 -58 -54 c-31 -29 -87 -82 -124 -117 l-68 -64 0 -529 0 -530 37 -49 c20 -27 39 -47 41 -45 3 2 -12 24 -32 49 l-36 44 0 530 0 529 121 112 121 111 64 -55 c36 -30 69 -55 74 -55 4 0 31 26 59 58 l51 57 0 -110 c0 -99 2 -111 20 -123 20 -12 20 -23 20 -534 l0 -522 -41 -48 c-22 -26 -37 -48 -32 -47 4 0 25 21 46 45 l37 45 0 523 c0 510 0 523 -20 541 -18 16 -20 31 -20 132 0 62 -3 113 -7 113 -5 0 -30 -27 -57 -60z"/>
<path d="M1004 1694 c-114 -90 -142 -114 -132 -114 3 0 59 43 124 95 66 52 123 94 128 92 6 -2 72 -48 147 -103 l138 -99 3 -455 3 -455 3 456 2 456 -145 107 c-80 58 -149 106 -154 106 -4 0 -57 -39 -117 -86z"/>
<path d="M1862 1328 l3 -423 5 413 5 413 102 -76 103 -77 3 -336 2 -337 2 340 2 340 -101 75 c-55 41 -107 79 -114 83 -12 7 -14 -62 -12 -415z"/>
<path d="M1460 1722 c1 -11 220 -169 220 -158 0 2 -49 41 -110 85 -60 45 -110 78 -110 73z"/>
<path d="M467 1673 c-4 -3 -7 -190 -7 -415 l0 -408 65 0 65 0 0 374 0 374 -49 41 c-49 41 -62 47 -74 34z m76 -47 l37 -29 0 -369 0 -368 -55 0 -55 0 0 398 c0 219 3 402 6 405 8 8 17 3 67 -37z"/>
<path d="M1127 1487 l-57 -52 2 -390 3 -390 5 391 5 391 50 43 50 43 5 -434 5 -434 3 443 c1 243 -1 442 -5 442 -5 -1 -34 -24 -66 -53z"/>
<path d="M1704 785 c0 -71 1 -99 3 -62 2 37 2 96 0 130 -2 34 -3 4 -3 -68z"/>
</g>
<g id="layer103" fill="#565656" stroke="none">
<path d="M382 1932 l-122 -117 0 -528 0 -528 40 -50 c22 -28 40 -47 40 -43 0 4 -16 26 -35 50 l-35 42 0 530 0 529 121 112 121 111 64 -55 c36 -30 68 -55 73 -55 7 0 53 47 86 91 11 14 -3 1 -31 -29 -57 -62 -51 -62 -135 10 -30 26 -57 48 -60 48 -2 -1 -59 -54 -127 -118z"/>
<path d="M760 1834 c0 -5 9 -15 20 -22 20 -12 20 -23 20 -534 l0 -522 -41 -50 -41 -51 46 50 46 49 0 521 0 522 -25 23 c-14 13 -25 19 -25 14z"/>
<path d="M995 1684 c-134 -107 -130 -104 -123 -104 3 0 59 43 124 95 66 52 123 94 128 92 6 -2 72 -48 147 -103 l138 -99 3 -455 3 -455 3 455 2 455 -142 103 c-77 57 -146 106 -152 108 -6 2 -65 -39 -131 -92z"/>
<path d="M1862 1329 l3 -424 5 413 5 413 102 -76 103 -77 3 -336 2 -337 3 337 2 337 -102 77 c-57 43 -109 81 -115 87 -10 7 -13 -77 -11 -414z"/>
<path d="M1555 1647 c101 -74 139 -99 120 -80 -18 18 -205 153 -212 153 -4 0 38 -33 92 -73z"/>
<path d="M467 1673 c-4 -3 -7 -190 -7 -415 l0 -408 68 2 67 2 -62 3 -63 4 0 404 c0 290 3 405 11 405 6 0 34 -18 63 -41 l51 -41 -50 46 c-49 45 -65 53 -78 39z"/>
<path d="M1127 1487 l-57 -52 2 -390 3 -390 3 391 2 392 47 38 c26 22 54 44 62 51 9 7 12 12 6 12 -5 0 -36 -23 -68 -52z"/>
<path d="M2244 785 c0 -71 1 -99 3 -62 2 37 2 96 0 130 -2 34 -3 4 -3 -68z"/>
<path d="M1513 613 c31 -2 83 -2 115 0 31 2 5 3 -58 3 -63 0 -89 -1 -57 -3z"/>
</g>
<g id="layer104" fill="#858585" stroke="none">
<path d="M433 1974 l-78 -77 78 72 78 72 60 -51 c32 -29 59 -50 59 -47 0 3 -27 28 -60 57 l-59 51 -78 -77z"/>
<path d="M704 1993 c-27 -31 -44 -54 -37 -50 14 9 97 107 90 107 -2 0 -26 -26 -53 -57z"/>
<path d="M302 1857 l-42 -43 3 -529 2 -530 3 530 2 529 42 43 c23 24 40 43 37 43 -3 0 -24 -19 -47 -43z"/>
<path d="M778 1814 l22 -15 0 -521 c0 -482 -1 -523 -17 -542 -18 -21 -18 -21 5 -2 l22 19 0 522 c0 493 -1 523 -18 538 -10 10 -23 17 -28 17 -4 0 2 -7 14 -16z"/>
<path d="M1152 1754 c4 -5 28 -25 54 -44 26 -18 45 -29 42 -24 -4 5 -28 25 -54 44 -26 18 -45 29 -42 24z"/>
<path d="M1862 1323 l3 -418 5 413 5 413 102 -76 103 -77 3 -336 2 -337 3 337 2 338 -107 80 c-58 44 -110 80 -115 80 -4 0 -7 -188 -6 -417z"/>
<path d="M1482 1704 c4 -5 28 -25 54 -44 26 -18 45 -29 42 -24 -4 5 -28 25 -54 44 -26 18 -45 29 -42 24z"/>
<path d="M467 1673 c-4 -3 -7 -190 -7 -415 l0 -408 68 2 67 2 -63 3 -62 4 2 409 c2 226 3 410 2 410 0 0 -4 -3 -7 -7z"/>
<path d="M1302 1644 c4 -5 28 -25 54 -44 26 -18 45 -29 42 -24 -4 5 -28 25 -54 44 -26 18 -45 29 -42 24z"/>
<path d="M895 1604 c-18 -16 -22 -22 -9 -15 18 9 53 42 43 41 -2 -1 -17 -12 -34 -26z"/>
<path d="M1415 1115 c0 -253 1 -355 2 -227 2 128 2 335 0 460 -1 125 -2 20 -2 -233z"/>
<path d="M1154 1508 l-29 -33 35 30 c19 17 37 31 39 33 2 1 0 2 -5 2 -6 0 -23 -15 -40 -32z"/>
<path d="M301 710 c18 -25 34 -47 36 -49 2 -2 3 0 3 5 0 5 -16 27 -36 49 l-36 40 33 -45z"/>
<path d="M1513 423 c31 -2 83 -2 115 0 31 2 5 3 -58 3 -63 0 -89 -1 -57 -3z"/>
</g>
<g id="layer105" fill="#c4c4c4" stroke="none">
<path d="M400 1945 c-24 -25 -42 -45 -39 -45 3 0 25 20 49 45 24 25 42 45 39 45 -3 0 -25 -20 -49 -45z"/>
<path d="M465 1667 c-3 -6 -4 -194 -3 -417 l3 -405 5 418 c3 229 4 417 2 417 -1 0 -5 -6 -7 -13z"/>
<path d="M1415 1110 c0 -250 1 -353 2 -228 2 126 2 330 0 455 -1 126 -2 23 -2 -227z"/>
<path d="M1159 1513 l-24 -28 30 25 c17 14 32 26 34 28 2 1 0 2 -6 2 -5 0 -20 -12 -34 -27z"/>
<path d="M1092 1457 c-22 -23 -22 -24 -19 -413 l2 -389 3 389 c2 385 2 390 24 413 12 13 19 23 16 23 -2 0 -14 -10 -26 -23z"/>
</g>


</svg>