<!DOCTYPE svg PUBLIC "-//W3C//DTD SVG 20010904//EN" "http://www.w3.org/TR/2001/REC-SVG-20010904/DTD/svg10.dtd">
<svg version="1.0" xmlns="http://www.w3.org/2000/svg" width="512px" height="256px" viewBox="0 0 5120 2560" preserveAspectRatio="xMidYMid meet">
<g id="layer101" fill="#000000" stroke="none">
 <path d="M489 2169 c-11 -11 -18 -28 -15 -37 22 -73 26 -155 26 -649 l0 -543 -64 0 c-88 0 -96 -10 -96 -112 0 -65 -4 -85 -20 -105 -24 -31 -25 -46 -4 -67 14 -14 69 -16 453 -16 354 0 441 3 450 13 7 10 12 136 13 402 2 300 6 389 16 393 9 3 12 -79 12 -386 0 -342 2 -393 16 -406 13 -14 66 -16 424 -16 358 0 411 2 424 16 9 8 16 20 16 27 0 6 13 -1 28 -16 l28 -27 214 0 214 0 38 37 38 37 31 -37 30 -37 232 0 c223 0 231 1 254 22 17 16 23 18 24 7 0 -8 0 -64 -1 -125 -1 -147 -5 -144 150 -144 155 0 151 -3 150 144 -2 167 -5 154 28 123 l28 -27 215 0 216 0 23 25 23 25 11 -23 c11 -21 18 -22 137 -25 97 -2 129 1 137 11 8 10 13 131 14 402 2 300 6 389 16 393 8 2 12 -11 12 -47 0 -82 16 -91 153 -91 161 0 157 -4 157 165 l0 133 -158 116 c-87 63 -166 118 -174 121 -10 4 -60 -29 -142 -94 -69 -56 -129 -101 -133 -101 -3 0 -47 31 -97 68 -131 98 -143 104 -170 76 -13 -13 -16 -43 -16 -175 0 -135 -2 -159 -15 -159 -13 0 -15 24 -15 159 0 132 -3 162 -16 175 -28 29 -39 23 -189 -98 -38 -31 -74 -56 -79 -56 -4 0 -47 29 -95 63 -114 84 -126 90 -151 77 -22 -12 -23 -15 -20 -78 l2 -43 -39 24 c-21 13 -67 43 -102 66 -35 22 -68 41 -73 41 -4 0 -17 -9 -28 -20 -19 -19 -20 -33 -20 -214 0 -162 -2 -195 -15 -200 -13 -4 -15 24 -17 206 -3 202 -4 211 -24 225 -19 12 -27 9 -95 -37 -41 -28 -94 -66 -119 -84 l-45 -34 -135 100 c-173 127 -165 123 -198 102 -58 -38 -260 -205 -266 -220 -3 -9 -6 -155 -6 -325 l0 -309 -55 0 -55 0 -2 322 -3 322 -95 74 c-150 117 -166 125 -194 96 -14 -13 -16 -65 -16 -415 l0 -399 -50 0 -50 0 0 314 0 314 -167 122 c-100 73 -172 119 -181 115 -8 -3 -75 -53 -148 -112 l-134 -106 0 -350 c0 -314 -2 -349 -16 -343 -9 3 -42 6 -75 6 l-59 0 3 493 c2 270 7 506 11 523 8 31 6 33 -101 110 -143 103 -174 124 -184 124 -5 0 -18 -9 -30 -21z m264 -218 c-4 -9 -9 -251 -11 -538 l-2 -523 85 0 85 0 0 -84 c0 -62 4 -87 15 -96 8 -7 15 -16 15 -21 0 -5 -133 -9 -296 -9 l-295 0 15 22 c11 16 16 46 16 105 l0 83 80 0 80 0 0 588 c0 323 -4 603 -9 623 l-8 37 119 -86 c94 -67 117 -88 111 -101z m767 -818 l0 -453 -105 0 -105 0 0 441 0 441 -57 -48 c-32 -27 -61 -53 -65 -59 -4 -5 -8 -182 -8 -392 l0 -383 -100 0 -100 0 0 459 0 459 126 100 125 101 145 -107 144 -106 0 -453z m1024 552 l136 -99 0 -415 0 -415 -37 -38 -37 -38 -193 0 -192 0 -40 43 -40 42 -1 417 0 417 123 99 c67 55 127 97 133 93 6 -3 73 -51 148 -106z m2146 -212 l0 -113 -105 0 -105 0 0 101 0 101 -57 -48 c-32 -27 -61 -53 -65 -59 -4 -5 -8 -182 -8 -392 l0 -383 -100 0 -100 0 0 459 0 459 126 100 125 101 145 -107 144 -106 0 -113z m-2760 -205 l0 -338 80 0 80 0 0 -125 0 -125 -265 0 -265 0 0 125 0 125 80 0 80 0 0 415 0 415 105 -77 104 -78 1 -337z m1905 147 l60 0 3 172 2 173 105 -78 104 -77 1 -425 0 -424 -37 -38 -37 -38 -193 0 -192 0 -40 43 -40 42 -1 417 0 417 98 79 97 79 5 -171 5 -171 60 0z m-899 -145 c4 0 33 16 65 36 l59 35 0 199 0 199 105 -67 104 -67 1 -185 0 -185 -65 -34 c-36 -19 -65 -38 -65 -41 0 -4 28 -22 63 -41 l62 -34 3 -161 2 -160 -32 -42 -32 -42 -211 0 -210 1 -28 36 -27 36 2 426 3 425 95 68 95 68 3 -235 c1 -129 5 -235 8 -235z m497 381 l97 -71 0 -450 0 -450 -110 0 -110 0 0 531 c0 424 3 529 13 522 6 -6 56 -42 110 -82z m-167 -509 c-4 -3 -12 0 -19 7 -9 9 -9 14 3 21 11 7 16 5 18 -6 2 -9 1 -18 -2 -22z m264 -602 l0 -90 -110 0 -110 0 0 90 0 90 110 0 110 0 0 -90z"/>
 <path d="M2402 1508 l-62 -52 0 -283 0 -283 65 0 65 0 0 335 c0 184 -1 335 -3 335 -1 0 -30 -23 -65 -52z m18 -308 c0 -224 -2 -260 -15 -260 -13 0 -15 34 -15 248 0 180 3 251 12 260 7 7 13 12 15 12 2 0 3 -117 3 -260z"/>
 <path d="M3770 1045 l0 -155 65 0 65 0 0 155 0 155 -65 0 -65 0 0 -155z m80 5 c0 -91 -3 -110 -15 -110 -12 0 -15 19 -15 110 0 91 3 110 15 110 12 0 15 -19 15 -110z"/>
 <path d="M2930 971 l0 -91 65 0 65 0 0 53 c0 39 -4 55 -17 63 -10 6 -39 23 -65 38 l-48 28 0 -91z m80 -27 c0 -8 -7 -14 -15 -14 -10 0 -15 10 -15 26 0 22 2 25 15 14 8 -7 15 -19 15 -26z"/>
 </g>

</svg>