<!DOCTYPE svg PUBLIC "-//W3C//DTD SVG 20010904//EN" "http://www.w3.org/TR/2001/REC-SVG-20010904/DTD/svg10.dtd">
<svg version="1.0" xmlns="http://www.w3.org/2000/svg" width="784px" height="172px" viewBox="0 0 7840 1720" preserveAspectRatio="xMidYMid meet">
<g id="layer101" fill="#000000" stroke="none">
<path d="M39 1699 c-14 -14 -18 -26 -12 -37 4 -9 9 -309 11 -665 2 -638 2 -649 -18 -674 -24 -31 -25 -46 -4 -67 13 -14 50 -16 257 -16 l242 1 65 39 65 40 33 -40 34 -40 233 0 233 0 34 40 34 39 39 -39 39 -40 215 0 215 0 38 37 38 37 38 -37 38 -37 215 0 215 0 39 40 39 40 41 -40 41 -40 214 0 214 0 28 27 c33 31 30 44 28 -123 -1 -147 -5 -144 150 -144 155 0 152 -3 149 147 -1 63 1 116 3 119 3 2 11 -2 18 -11 10 -13 49 -15 245 -15 l233 0 34 40 34 39 39 -39 39 -40 216 0 216 0 52 53 52 53 0 141 c0 175 1 173 -135 173 l-90 0 0 125 0 125 90 0 c135 0 135 0 135 158 0 70 -4 132 -8 138 -9 14 -322 244 -331 244 -10 0 -65 -40 -180 -133 l-94 -75 -56 36 c-31 20 -83 53 -115 74 -33 21 -63 38 -68 38 -4 0 -17 -9 -28 -20 -19 -19 -20 -33 -20 -214 0 -163 -2 -195 -15 -200 -13 -5 -15 22 -15 204 0 202 -1 209 -21 224 -27 19 -39 13 -164 -78 -49 -36 -94 -66 -98 -66 -5 0 -48 29 -96 63 -114 84 -126 90 -151 77 -22 -12 -23 -14 -20 -82 1 -27 -1 -48 -4 -48 -3 0 -67 45 -142 100 -75 55 -140 100 -144 100 -9 0 -88 -59 -205 -154 -45 -36 -84 -61 -90 -56 -66 51 -289 210 -295 210 -9 0 -65 -41 -180 -134 -52 -42 -100 -74 -106 -72 -7 3 -73 50 -149 105 -75 56 -141 101 -145 101 -9 0 -64 -41 -179 -133 l-94 -75 -56 36 c-31 20 -83 53 -115 74 -33 21 -63 38 -68 38 -4 0 -17 -9 -28 -20 -19 -19 -20 -33 -20 -214 0 -163 -2 -195 -15 -200 -13 -5 -15 22 -15 204 0 203 -1 209 -22 224 -26 18 -33 15 -150 -70 l-87 -63 -278 223 c-254 203 -311 246 -327 246 -3 0 -15 -9 -27 -21z m571 -686 l0 -223 -135 0 -135 0 0 100 0 100 30 0 c30 0 30 1 30 55 0 54 0 55 -52 93 -29 21 -59 42 -65 46 -10 6 -13 -66 -13 -343 l0 -351 65 0 c58 0 65 2 65 20 0 19 7 20 105 20 l105 0 0 -87 0 -88 -65 -37 -64 -38 -210 0 c-193 0 -233 5 -201 25 7 4 10 242 10 681 l0 674 265 -212 265 -212 0 -223z m1055 274 l140 -103 3 -112 3 -112 -106 0 -105 0 0 100 c0 55 -3 100 -6 100 -4 0 -33 -23 -65 -51 l-59 -51 0 -84 0 -84 60 0 60 0 0 -105 0 -105 -60 0 -60 0 0 -95 0 -95 65 0 65 0 0 60 0 60 105 0 105 0 0 -123 0 -123 -43 -42 -43 -42 -186 0 -186 0 -41 47 -41 48 0 411 0 411 121 96 c67 53 125 97 128 97 3 0 69 -47 146 -103z m580 0 l140 -103 3 -192 2 -192 -145 0 -145 0 0 90 0 90 40 0 40 0 0 90 c0 50 -3 90 -6 90 -4 0 -33 -23 -65 -51 l-59 -51 0 -284 0 -284 65 0 65 0 0 60 0 60 105 0 105 0 0 -123 0 -123 -43 -42 -43 -42 -186 0 -186 0 -41 47 -41 48 0 411 0 411 121 96 c67 53 125 97 128 97 3 0 69 -47 146 -103z m590 0 l140 -103 3 -409 2 -409 -42 -43 -42 -43 -187 0 -187 0 -41 47 -41 48 0 411 0 411 121 96 c67 53 125 97 128 97 3 0 69 -47 146 -103z m1430 0 l140 -103 3 -112 3 -112 -106 0 -105 0 0 100 c0 55 -3 100 -6 100 -4 0 -33 -23 -65 -51 l-59 -51 0 -84 0 -84 60 0 60 0 0 -105 0 -105 -60 0 -60 0 0 -95 0 -95 65 0 65 0 0 60 0 60 105 0 105 0 0 -123 0 -123 -43 -42 -43 -42 -186 0 -186 0 -41 47 -41 48 0 411 0 411 121 96 c67 53 125 97 128 97 3 0 69 -47 146 -103z m-3318 -387 l63 39 2 196 3 197 103 -67 102 -67 0 -179 0 -179 -70 -37 c-38 -21 -70 -40 -70 -43 0 -3 32 -23 70 -44 l70 -37 0 -156 0 -156 -36 -43 -35 -44 -204 0 -203 0 -31 39 -31 39 0 419 0 419 98 70 97 70 5 -238 5 -238 62 40z m2600 0 l63 39 2 196 3 197 103 -67 102 -67 0 -179 0 -179 -70 -37 c-38 -21 -70 -40 -70 -43 0 -3 32 -23 70 -44 l70 -37 0 -156 0 -156 -36 -43 -35 -44 -204 0 -203 0 -31 39 -31 39 0 419 0 419 98 70 97 70 5 -238 5 -238 62 40z m-409 351 l102 -74 0 -449 0 -448 -110 0 -110 0 0 526 c0 289 4 524 8 522 5 -1 54 -36 110 -77z m-2788 -192 c0 -10 -7 -19 -15 -19 -9 0 -15 9 -15 25 0 18 4 23 15 19 8 -4 15 -15 15 -25z m1202 -71 c3 -40 0 -48 -14 -48 -15 0 -18 9 -18 48 0 26 6 54 13 61 14 14 14 13 19 -61z m578 57 c0 -8 -7 -15 -16 -15 -14 0 -14 3 -4 15 7 8 14 15 16 15 2 0 4 -7 4 -15z m2022 -57 c3 -40 0 -48 -14 -48 -15 0 -18 9 -18 48 0 26 6 54 13 61 14 14 14 13 19 -61z m-2352 -203 l0 -125 -82 0 -83 0 0 125 0 125 83 0 82 0 0 -125z m-584 -43 c-4 -3 -12 0 -19 7 -9 9 -9 14 3 21 11 7 16 5 18 -6 2 -9 1 -18 -2 -22z m2600 0 c-4 -3 -12 0 -19 7 -9 9 -9 14 3 21 11 7 16 5 18 -6 2 -9 1 -18 -2 -22z m-1426 -37 l0 -45 -110 0 c-129 0 -150 -11 -150 -80 0 -29 -4 -40 -15 -40 -12 0 -15 18 -15 105 l0 105 145 0 145 0 0 -45z m-1760 -45 l0 -80 -125 0 c-114 0 -126 -2 -137 -20 -7 -11 -21 -20 -30 -20 -16 0 -18 11 -18 100 l0 100 155 0 155 0 0 -80z m922 -75 c-3 -30 -9 -45 -18 -45 -10 0 -14 13 -14 45 0 36 3 45 18 45 14 0 17 -7 14 -45z m2600 0 c-3 -30 -9 -45 -18 -45 -10 0 -14 13 -14 45 0 36 3 45 18 45 14 0 17 -7 14 -45z m-912 -445 l0 -90 -110 0 -110 0 0 90 0 90 110 0 110 0 0 -90z"/>
<path d="M2697 1107 l-58 -52 1 -282 0 -283 65 0 65 0 0 335 c0 184 -3 335 -7 335 -5 0 -34 -24 -66 -53z m23 -307 c0 -224 -2 -260 -15 -260 -13 0 -15 34 -15 248 0 180 3 251 12 260 7 7 13 12 15 12 2 0 3 -117 3 -260z"/>
<path d="M880 570 l0 -90 65 0 65 0 0 54 0 55 -59 35 c-32 20 -61 36 -65 36 -3 0 -6 -40 -6 -90z m80 -26 c0 -8 -7 -14 -15 -14 -10 0 -15 10 -15 26 0 22 2 25 15 14 8 -7 15 -19 15 -26z"/>
<path d="M3480 570 l0 -90 65 0 65 0 0 54 0 55 -59 35 c-32 20 -61 36 -65 36 -3 0 -6 -40 -6 -90z m80 -26 c0 -8 -7 -14 -15 -14 -10 0 -15 10 -15 26 0 22 2 25 15 14 8 -7 15 -19 15 -26z"/>
<path d="M4859 1699 c-14 -14 -18 -26 -12 -37 4 -9 9 -309 11 -665 2 -638 2 -649 -18 -674 -24 -31 -25 -46 -4 -67 13 -13 42 -16 164 -16 142 0 150 1 164 22 14 20 14 25 -4 56 -19 31 -20 52 -20 403 0 292 3 370 13 367 6 -3 15 -23 18 -45 9 -70 15 -73 155 -73 l124 0 0 -301 c0 -201 4 -308 11 -322 6 -12 30 -41 52 -64 l41 -43 215 0 215 0 38 37 38 37 38 -37 38 -37 215 0 215 0 39 40 39 40 41 -40 41 -40 215 0 215 0 34 35 34 35 29 -35 28 -35 234 0 233 0 46 54 46 53 0 110 c0 71 -4 113 -12 121 -8 8 -54 12 -139 12 -132 0 -159 -8 -159 -46 0 -8 -7 -14 -16 -14 -12 0 -14 10 -12 51 l3 51 150 80 c83 44 158 87 168 96 15 13 17 37 17 212 0 191 -1 197 -22 217 -31 27 -308 213 -318 213 -5 0 -59 -39 -120 -87 -61 -49 -120 -94 -131 -102 -17 -12 -28 -7 -112 56 -132 100 -144 105 -171 77 -13 -13 -16 -43 -16 -175 0 -135 -2 -159 -15 -159 -13 0 -15 24 -15 159 0 132 -3 162 -16 175 -28 29 -35 25 -211 -115 l-59 -47 -134 100 c-163 120 -165 121 -187 109 -10 -5 -72 -52 -138 -105 -66 -53 -125 -94 -131 -92 -7 3 -73 50 -149 105 -75 56 -141 101 -145 101 -9 0 -68 -44 -183 -136 l-77 -63 -278 223 c-253 203 -310 246 -326 246 -3 0 -15 -9 -27 -21z m571 -571 l0 -108 -105 0 -105 0 0 39 c0 36 -5 43 -57 85 -32 25 -61 46 -65 46 -5 0 -8 -194 -8 -430 0 -380 2 -434 16 -455 l16 -25 -121 0 c-110 0 -140 7 -111 25 7 4 10 242 10 681 l0 674 265 -212 265 -212 0 -108z m465 159 l140 -103 3 -112 3 -112 -106 0 -105 0 0 100 c0 55 -3 100 -6 100 -4 0 -33 -23 -65 -51 l-59 -51 0 -84 0 -84 60 0 60 0 0 -105 0 -105 -60 0 -60 0 0 -95 0 -95 65 0 65 0 0 60 0 60 105 0 105 0 0 -123 0 -123 -43 -42 -43 -42 -186 0 -186 0 -41 47 -41 48 0 411 0 411 121 96 c67 53 125 97 128 97 3 0 69 -47 146 -103z m580 0 l140 -103 3 -172 2 -171 -70 -38 c-38 -21 -70 -40 -70 -43 0 -3 32 -23 70 -44 l70 -37 0 -158 0 -157 -43 -42 -43 -42 -186 0 -186 0 -41 47 -41 48 0 411 0 411 121 96 c67 53 125 97 128 97 3 0 69 -47 146 -103z m1180 3 l135 -90 0 -179 0 -179 -167 -89 -168 -89 -3 -92 -3 -92 66 0 65 0 0 30 0 30 105 0 105 0 0 -86 c0 -85 -1 -88 -36 -130 l-35 -44 -204 0 -203 0 -31 39 -31 39 2 198 3 197 154 88 c84 48 157 91 163 97 5 5 7 57 6 117 l-3 108 -62 -52 c-37 -31 -63 -61 -63 -72 0 -17 -8 -19 -100 -19 l-100 0 0 88 0 89 123 96 c67 53 127 95 134 92 7 -2 73 -45 148 -95z m-720 -280 l65 0 0 170 c0 94 3 170 6 170 3 0 50 -34 105 -76 l99 -76 0 -417 0 -417 -43 -42 -43 -42 -186 0 -186 0 -41 47 -41 48 0 411 0 411 98 77 97 78 3 -171 2 -171 65 0z m-1153 -22 c3 -40 0 -48 -14 -48 -15 0 -18 9 -18 48 0 26 6 54 13 61 14 14 14 13 19 -61z m1746 20 l-3 -42 -125 -73 c-69 -39 -128 -72 -132 -72 -5 -1 -8 33 -8 74 l0 75 98 0 c104 0 142 13 142 49 0 10 3 21 7 24 16 17 24 4 21 -35z m-1498 -223 l0 -125 -82 0 -83 0 0 125 0 125 83 0 82 0 0 -125z m586 -43 c-4 -3 -12 0 -19 7 -9 9 -9 14 3 21 11 7 16 5 18 -6 2 -9 1 -18 -2 -22z m-834 -157 c-3 -30 -9 -45 -18 -45 -10 0 -14 13 -14 45 0 36 3 45 18 45 14 0 17 -7 14 -45z"/>
<path d="M6337 1107 l-58 -52 3 -97 3 -98 63 40 62 39 0 111 c0 60 -3 110 -7 110 -5 0 -34 -24 -66 -53z m11 -148 c-18 -12 -24 67 -6 88 11 14 13 9 16 -32 2 -32 -1 -51 -10 -56z"/>
<path d="M6280 575 l0 -85 65 0 65 0 0 49 0 50 -59 35 c-32 20 -61 36 -65 36 -3 0 -6 -38 -6 -85z m80 -26 c0 -5 -7 -9 -15 -9 -9 0 -15 9 -15 21 0 18 2 19 15 9 8 -7 15 -16 15 -21z"/>
<path d="M6870 650 l0 -160 65 0 65 0 0 160 0 160 -65 0 -65 0 0 -160z m80 0 c0 -91 -3 -110 -15 -110 -12 0 -15 19 -15 110 0 91 3 110 15 110 12 0 15 -19 15 -110z"/>
</g>
<g id="layer102" fill="#2a2a2a" stroke="none">
<path d="M68 1658 c3 -12 7 -17 9 -11 3 7 123 -83 269 -199 l264 -212 0 -223 0 -223 -135 0 -135 0 0 100 0 100 30 0 c30 0 30 1 30 55 0 54 0 55 -52 93 -29 21 -59 42 -65 46 -10 6 -13 -66 -13 -343 l0 -351 65 0 c58 0 65 2 65 20 0 19 7 20 105 20 l105 0 0 -87 0 -88 -60 -34 c-33 -19 -58 -37 -55 -39 2 -2 31 12 64 33 l61 36 0 95 0 94 -115 0 c-108 0 -115 -1 -115 -20 0 -18 -7 -20 -55 -20 l-55 0 0 335 c0 269 3 334 13 328 93 -59 97 -64 97 -114 0 -48 -1 -49 -30 -49 l-30 0 0 -110 0 -110 145 0 145 0 0 233 -1 232 -270 215 c-149 118 -274 216 -279 218 -5 2 -6 -7 -2 -20z"/>
<path d="M4888 1658 c3 -12 7 -17 9 -11 3 7 123 -83 269 -199 l264 -212 0 -108 0 -108 -105 0 -105 0 0 39 c0 36 -5 43 -57 85 -32 25 -61 46 -65 46 -5 0 -8 -194 -8 -430 0 -380 2 -434 16 -455 9 -14 21 -25 27 -25 6 0 1 10 -11 23 -22 23 -22 26 -22 450 l0 427 55 -43 c51 -39 55 -45 55 -84 l0 -43 115 0 115 0 0 118 -1 117 -270 215 c-149 118 -274 216 -279 218 -5 2 -6 -7 -2 -20z"/>
<path d="M1383 1299 l-123 -100 0 -417 1 -417 40 -42 c54 -58 60 -54 10 5 l-41 48 0 410 0 410 115 93 c64 50 121 94 128 96 7 3 75 -41 152 -98 l140 -103 3 -112 3 -112 -106 0 -105 0 0 100 c0 55 -3 100 -6 100 -4 0 -33 -23 -65 -51 l-59 -51 2 -86 2 -87 5 87 6 88 50 41 50 41 3 -96 3 -96 114 0 115 0 0 118 0 118 -145 107 c-80 59 -151 107 -158 106 -6 0 -67 -45 -134 -100z"/>
<path d="M1963 1299 l-123 -100 0 -417 1 -417 40 -42 c54 -58 60 -54 10 5 l-41 48 0 410 0 410 115 93 c64 50 121 94 128 96 7 3 75 -42 152 -98 l140 -103 3 -192 2 -192 -145 0 -145 0 0 90 0 90 40 0 40 0 0 90 c0 50 -3 90 -6 90 -4 0 -33 -23 -65 -51 l-59 -51 0 -284 0 -284 65 0 65 0 0 60 0 60 105 0 105 0 0 -123 0 -123 -40 -39 c-22 -21 -37 -41 -35 -44 3 -2 23 13 45 34 l40 39 0 133 0 133 -115 0 -115 0 0 -60 0 -60 -55 0 -55 0 0 278 0 278 43 35 c69 58 67 59 67 -25 l0 -76 -40 0 -41 0 3 -97 3 -98 153 -3 152 -3 0 199 0 198 -145 107 c-80 59 -151 107 -158 106 -6 0 -67 -45 -134 -100z"/>
<path d="M2553 1299 l-123 -100 0 -417 1 -417 40 -42 c54 -58 60 -54 10 5 l-41 48 0 410 0 410 115 93 c64 50 121 94 128 96 7 3 75 -42 152 -98 l140 -103 3 -409 2 -409 -42 -43 c-23 -24 -38 -43 -32 -43 5 0 27 17 47 38 l37 38 0 415 0 415 -145 107 c-80 59 -151 107 -158 106 -6 0 -67 -45 -134 -100z"/>
<path d="M3983 1299 l-123 -100 0 -417 1 -417 40 -42 c54 -58 60 -54 10 5 l-41 48 0 410 0 410 115 93 c64 50 121 94 128 96 7 3 75 -41 152 -98 l140 -103 3 -112 3 -112 -106 0 -105 0 0 100 c0 55 -3 100 -6 100 -4 0 -33 -23 -65 -51 l-59 -51 2 -86 2 -87 5 87 6 88 50 41 50 41 3 -96 3 -96 114 0 115 0 0 118 0 118 -145 107 c-80 59 -151 107 -158 106 -6 0 -67 -45 -134 -100z"/>
<path d="M5613 1299 l-123 -100 0 -417 1 -417 40 -42 c54 -58 60 -54 10 5 l-41 48 0 410 0 410 115 93 c64 50 121 94 128 96 7 3 75 -41 152 -98 l140 -103 3 -112 3 -112 -106 0 -105 0 0 100 c0 55 -3 100 -6 100 -4 0 -33 -23 -65 -51 l-59 -51 2 -86 2 -87 5 87 6 88 50 41 50 41 3 -96 3 -96 114 0 115 0 0 118 0 118 -145 107 c-80 59 -151 107 -158 106 -6 0 -67 -45 -134 -100z"/>
<path d="M6193 1299 l-123 -100 0 -417 1 -417 40 -42 c54 -58 60 -54 10 5 l-41 48 0 410 0 410 115 93 c64 50 121 94 128 96 7 3 75 -42 152 -98 l140 -103 3 -172 2 -171 -70 -38 c-38 -21 -70 -40 -70 -43 0 -3 32 -23 70 -44 l70 -37 0 -158 0 -157 -40 -39 c-22 -21 -37 -41 -35 -44 3 -2 23 13 45 34 l40 39 0 166 0 165 -64 35 c-36 19 -62 38 -60 42 2 4 31 22 64 40 l60 33 0 175 0 176 -145 107 c-80 59 -151 107 -158 106 -6 0 -67 -45 -134 -100z"/>
<path d="M7362 1299 l-123 -100 3 -92 3 -92 108 -3 c102 -3 107 -2 107 18 0 18 41 62 92 98 17 13 18 8 18 -85 l0 -99 -165 -94 -165 -94 0 -199 0 -199 28 -39 c15 -21 31 -39 35 -39 5 0 -5 18 -22 39 l-31 39 2 198 3 197 154 88 c84 48 157 91 163 97 5 5 7 57 6 117 l-3 108 -62 -52 c-37 -31 -63 -61 -63 -72 0 -17 -8 -19 -100 -19 l-100 0 0 89 0 88 107 84 c59 46 115 90 126 98 17 12 33 3 163 -83 l144 -96 0 -179 0 -179 -167 -89 -168 -89 -3 -92 -3 -92 66 0 65 0 0 30 0 30 105 0 105 0 0 -86 c0 -85 -1 -88 -36 -130 -19 -24 -32 -44 -27 -44 5 0 23 19 41 42 31 40 32 45 32 135 l0 93 -115 0 -115 0 0 -30 c0 -30 -1 -30 -55 -30 l-55 0 0 83 0 83 170 89 170 90 0 185 0 185 -144 98 c-80 53 -150 97 -158 96 -7 0 -68 -45 -136 -100z"/>
<path d="M6765 1287 l-100 -83 -2 -420 -3 -419 41 -43 c54 -57 60 -53 10 6 l-41 48 0 410 0 411 98 77 97 78 3 -171 2 -171 65 0 65 0 0 170 c0 94 3 170 6 170 3 0 50 -34 105 -76 l99 -76 0 -417 0 -417 -40 -39 c-22 -21 -37 -41 -35 -44 3 -2 23 13 45 34 l40 39 0 426 0 425 -110 83 c-60 45 -112 82 -115 82 -3 0 -5 -79 -5 -175 l0 -175 -55 0 -55 0 0 175 c0 96 -3 175 -7 175 -5 -1 -53 -38 -108 -83z"/>
<path d="M775 1277 l-100 -73 -3 -423 -2 -423 27 -39 c16 -21 32 -39 36 -39 5 0 -5 18 -22 39 l-31 39 0 419 0 419 100 72 100 71 2 -239 3 -240 62 40 63 39 2 196 3 197 103 -67 102 -67 0 -179 0 -179 -70 -37 c-38 -21 -70 -40 -70 -43 0 -3 32 -23 70 -44 l70 -37 0 -156 0 -156 -36 -43 c-19 -24 -32 -44 -27 -44 5 0 23 19 41 42 l32 42 0 160 0 161 -64 35 c-36 19 -62 38 -60 42 2 4 31 22 64 40 l60 33 0 185 0 185 -113 72 -112 72 -5 -204 -5 -204 -48 -31 c-26 -16 -50 -30 -52 -30 -3 0 -5 106 -5 235 0 129 -3 235 -7 235 -5 0 -53 -33 -108 -73z"/>
<path d="M3020 1342 c1 -11 220 -169 220 -158 0 2 -49 41 -110 85 -60 45 -110 78 -110 73z"/>
<path d="M3375 1277 l-100 -73 -3 -423 -2 -423 27 -39 c16 -21 32 -39 36 -39 5 0 -5 18 -22 39 l-31 39 0 419 0 419 100 72 100 71 2 -239 3 -240 62 40 63 39 2 196 3 197 103 -67 102 -67 0 -179 0 -179 -70 -37 c-38 -21 -70 -40 -70 -43 0 -3 32 -23 70 -44 l70 -37 0 -156 0 -156 -36 -43 c-19 -24 -32 -44 -27 -44 5 0 23 19 41 42 l32 42 0 160 0 161 -64 35 c-36 19 -62 38 -60 42 2 4 31 22 64 40 l60 33 0 185 0 185 -113 72 -112 72 -5 -204 -5 -204 -48 -31 c-26 -16 -50 -30 -52 -30 -3 0 -5 106 -5 235 0 129 -3 235 -7 235 -5 0 -53 -33 -108 -73z"/>
<path d="M2697 1107 l-58 -52 1 -282 0 -283 65 0 65 0 0 335 c0 184 -3 335 -7 335 -5 0 -34 -24 -66 -53z m63 -287 l0 -320 -55 0 -55 0 0 278 0 278 51 42 c29 23 53 42 55 42 2 0 4 -144 4 -320z"/>
<path d="M6337 1107 l-58 -52 3 -97 3 -98 63 40 62 39 0 111 c0 60 -3 110 -7 110 -5 0 -34 -24 -66 -53z m63 -66 l0 -98 -51 -32 c-28 -17 -52 -31 -55 -31 -2 0 -4 40 -4 88 l0 88 51 42 c29 23 53 42 55 42 2 0 4 -44 4 -99z"/>
<path d="M1590 785 l0 -105 -60 0 -60 0 0 -95 0 -95 65 0 65 0 0 60 0 60 105 0 105 0 0 -123 0 -123 -40 -39 c-22 -21 -37 -41 -35 -44 3 -2 23 13 45 34 l40 39 0 133 0 133 -115 0 -115 0 0 -60 0 -60 -55 0 -55 0 0 85 0 85 60 0 60 0 0 110 c0 61 -2 110 -5 110 -3 0 -5 -47 -5 -105z"/>
<path d="M4190 785 l0 -105 -60 0 -60 0 0 -95 0 -95 65 0 65 0 0 60 0 60 105 0 105 0 0 -123 0 -123 -40 -39 c-22 -21 -37 -41 -35 -44 3 -2 23 13 45 34 l40 39 0 133 0 133 -115 0 -115 0 0 -60 0 -60 -55 0 -55 0 0 85 0 85 60 0 60 0 0 110 c0 61 -2 110 -5 110 -3 0 -5 -47 -5 -105z"/>
<path d="M5820 785 l0 -105 -60 0 -60 0 0 -95 0 -95 65 0 65 0 0 60 0 60 105 0 105 0 0 -123 0 -123 -40 -39 c-22 -21 -37 -41 -35 -44 3 -2 23 13 45 34 l40 39 0 133 0 133 -115 0 -115 0 0 -60 0 -60 -55 0 -55 0 0 85 0 85 60 0 60 0 0 110 c0 61 -2 110 -5 110 -3 0 -5 -47 -5 -105z"/>
<path d="M880 570 l0 -90 65 0 65 0 0 54 0 55 -59 35 c-32 20 -61 36 -65 36 -3 0 -6 -40 -6 -90z m120 -32 l0 -48 -55 0 -55 0 0 80 0 79 55 -32 c54 -32 55 -33 55 -79z"/>
<path d="M3480 570 l0 -90 65 0 65 0 0 54 0 55 -59 35 c-32 20 -61 36 -65 36 -3 0 -6 -40 -6 -90z m120 -32 l0 -48 -55 0 -55 0 0 80 0 79 55 -32 c54 -32 55 -33 55 -79z"/>
<path d="M6280 575 l0 -85 65 0 65 0 0 49 0 50 -59 35 c-32 20 -61 36 -65 36 -3 0 -6 -38 -6 -85z m120 -32 l0 -43 -55 0 -55 0 0 75 0 74 55 -32 c53 -31 55 -34 55 -74z"/>
<path d="M57 304 c-10 -13 -14 -24 -10 -24 9 0 36 40 31 45 -2 2 -11 -8 -21 -21z"/>
<path d="M4877 304 c-10 -13 -14 -24 -10 -24 9 0 36 40 31 45 -2 2 -11 -8 -21 -21z"/>
</g>
<g id="layer103" fill="#484848" stroke="none">
<path d="M70 1660 c0 -5 4 -9 8 -7 4 1 126 -92 270 -207 l262 -210 0 -223 0 -223 -135 0 -135 0 0 99 0 100 33 4 c31 4 31 4 -5 5 l-38 2 0 -110 0 -110 145 0 145 0 0 229 0 229 -270 216 c-148 119 -272 216 -275 216 -3 0 -5 -4 -5 -10z"/>
<path d="M4890 1660 c0 -5 4 -9 8 -7 4 1 126 -92 270 -207 l262 -210 0 -108 0 -107 -107 -4 -108 -3 113 -2 112 -2 0 114 0 114 -270 216 c-148 119 -272 216 -275 216 -3 0 -5 -4 -5 -10z"/>
<path d="M1399 1310 c-63 -51 -118 -97 -124 -103 -16 -17 9 1 129 96 59 48 111 87 115 87 3 0 69 -47 146 -103 l140 -103 6 -115 5 -114 2 115 1 115 -141 103 c-77 57 -146 106 -153 108 -6 3 -63 -36 -126 -86z"/>
<path d="M1979 1310 c-63 -51 -118 -97 -124 -103 -16 -17 9 1 129 96 59 48 111 87 115 87 3 0 69 -47 146 -103 l140 -103 3 -192 2 -191 -147 -4 -148 -3 150 1 150 0 2 195 3 195 -142 103 c-77 57 -146 106 -153 108 -6 3 -63 -36 -126 -86z"/>
<path d="M2569 1310 c-63 -51 -118 -97 -124 -103 -16 -17 9 1 129 96 59 48 111 87 115 87 3 0 69 -47 146 -103 l140 -103 3 -409 2 -409 -42 -46 -43 -45 48 45 47 44 0 411 -1 410 -141 103 c-77 57 -146 106 -153 108 -6 3 -63 -36 -126 -86z"/>
<path d="M3999 1310 c-63 -51 -118 -97 -124 -103 -16 -17 9 1 129 96 59 48 111 87 115 87 3 0 69 -47 146 -103 l140 -103 6 -115 5 -114 2 115 1 115 -141 103 c-77 57 -146 106 -153 108 -6 3 -63 -36 -126 -86z"/>
<path d="M5629 1310 c-63 -51 -118 -97 -124 -103 -16 -17 9 1 129 96 59 48 111 87 115 87 3 0 69 -47 146 -103 l140 -103 6 -115 5 -114 2 115 1 115 -141 103 c-77 57 -146 106 -153 108 -6 3 -63 -36 -126 -86z"/>
<path d="M6209 1310 c-63 -51 -118 -97 -124 -103 -16 -17 9 1 129 96 59 48 111 87 115 87 3 0 69 -47 146 -103 l140 -103 3 -172 2 -171 -70 -38 c-38 -21 -70 -40 -70 -43 0 -3 32 -23 70 -44 l70 -37 0 -157 0 -156 -42 -46 -43 -45 48 45 47 45 -2 160 -3 160 -62 34 c-35 19 -63 37 -63 40 0 3 29 22 65 41 l65 35 0 175 -1 175 -141 103 c-77 57 -146 106 -153 108 -6 3 -63 -36 -126 -86z"/>
<path d="M7380 1309 c-63 -49 -119 -95 -125 -102 -15 -16 5 -2 120 88 55 43 106 83 113 88 9 7 53 -17 157 -87 l145 -96 0 -180 0 -180 -70 -35 c-38 -19 -70 -38 -70 -41 0 -3 33 12 73 33 l72 38 0 185 0 185 -145 98 c-79 53 -147 97 -150 97 -3 0 -57 -41 -120 -91z"/>
<path d="M6780 1294 c-52 -41 -99 -81 -105 -87 -15 -17 9 1 105 78 l85 67 3 -171 2 -171 65 0 65 0 0 170 c0 94 3 170 6 170 3 0 50 -34 105 -76 l99 -76 0 -416 0 -416 -42 -46 -43 -45 48 45 47 44 0 421 -1 420 -112 83 -112 83 -3 -175 -2 -176 -55 0 -55 0 -2 175 -3 175 -95 -76z"/>
<path d="M781 1280 c-51 -38 -96 -72 -100 -76 -12 -14 24 10 111 73 l88 63 2 -240 3 -240 62 40 63 39 2 196 3 197 103 -67 102 -67 0 -179 0 -179 -70 -37 c-38 -21 -70 -40 -70 -43 0 -3 32 -23 70 -44 l70 -37 0 -156 0 -156 -36 -46 -36 -46 41 44 41 44 -2 161 -3 161 -62 34 c-35 19 -63 37 -63 40 0 3 29 22 65 41 l65 35 0 183 0 182 -106 70 c-58 39 -110 70 -115 70 -5 0 -9 -87 -9 -199 l0 -199 -50 -31 c-28 -17 -52 -31 -55 -31 -3 0 -5 106 -5 235 0 129 -3 235 -7 235 -5 -1 -50 -32 -102 -70z"/>
<path d="M3381 1280 c-51 -38 -96 -72 -100 -76 -12 -14 24 10 111 73 l88 63 2 -240 3 -240 62 40 63 39 2 196 3 197 103 -67 102 -67 0 -179 0 -179 -70 -37 c-38 -21 -70 -40 -70 -43 0 -3 32 -23 70 -44 l70 -37 0 -156 0 -156 -36 -46 -36 -46 41 44 41 44 -2 161 -3 161 -62 34 c-35 19 -63 37 -63 40 0 3 29 22 65 41 l65 35 0 183 0 182 -106 70 c-58 39 -110 70 -115 70 -5 0 -9 -87 -9 -199 l0 -199 -50 -31 c-28 -17 -52 -31 -55 -31 -3 0 -5 106 -5 235 0 129 -3 235 -7 235 -5 -1 -50 -32 -102 -70z"/>
<path d="M3115 1267 c101 -74 139 -99 120 -80 -19 19 -204 153 -211 153 -5 0 37 -33 91 -73z"/>
<path d="M270 841 l0 -351 68 2 67 2 -62 3 -63 4 0 334 c0 303 4 359 24 327 7 -11 96 -74 96 -68 0 5 -88 72 -117 90 -10 6 -13 -66 -13 -343z"/>
<path d="M5090 758 c0 -414 1 -434 20 -458 11 -14 20 -20 20 -14 0 6 -7 17 -15 24 -13 11 -15 72 -15 442 l0 429 62 -47 c34 -27 59 -43 55 -37 -8 13 -112 93 -120 93 -4 0 -7 -195 -7 -432z"/>
<path d="M1527 1107 l-58 -52 3 -85 4 -85 2 86 2 85 55 47 54 48 4 -98 3 -98 2 103 c1 56 -1 102 -5 102 -5 0 -34 -24 -66 -53z"/>
<path d="M2107 1107 l-58 -52 1 -282 0 -283 65 0 65 0 0 60 0 60 105 0 105 0 0 -122 0 -122 -42 -46 -43 -45 48 45 48 45 -3 125 -3 125 -110 0 -110 0 -3 -58 -3 -57 -54 0 -55 0 0 278 0 278 55 48 55 47 0 -80 0 -80 -37 -4 -38 -4 43 -1 42 -2 0 90 c0 50 -3 90 -7 90 -5 0 -34 -24 -66 -53z"/>
<path d="M2697 1107 l-58 -52 1 -282 0 -283 65 0 65 0 0 335 c0 184 -3 335 -7 335 -5 0 -34 -24 -66 -53z m63 -282 l0 -325 -55 0 -55 0 0 278 0 277 52 47 c29 26 54 47 56 48 1 0 2 -146 2 -325z"/>
<path d="M4127 1107 l-58 -52 3 -85 4 -85 2 86 2 85 55 47 54 48 4 -98 3 -98 2 103 c1 56 -1 102 -5 102 -5 0 -34 -24 -66 -53z"/>
<path d="M5757 1107 l-58 -52 3 -85 4 -85 2 86 2 85 55 47 54 48 4 -98 3 -98 2 103 c1 56 -1 102 -5 102 -5 0 -34 -24 -66 -53z"/>
<path d="M6337 1107 l-58 -52 3 -97 3 -98 63 40 62 39 0 111 c0 60 -3 110 -7 110 -5 0 -34 -24 -66 -53z m63 -61 l0 -104 -50 -31 c-28 -17 -52 -31 -55 -31 -3 0 -5 39 -5 88 l0 87 52 47 c29 26 54 47 56 48 1 0 2 -47 2 -104z"/>
<path d="M7513 1111 c-36 -31 -63 -61 -63 -72 0 -16 -10 -19 -102 -22 l-103 -3 105 0 c98 1 104 2 110 23 4 19 89 103 104 103 3 0 6 -45 6 -99 l0 -99 -143 -81 c-78 -44 -151 -88 -162 -97 -19 -15 -19 -15 5 -2 14 8 87 50 163 93 77 43 141 84 143 90 3 6 3 58 2 115 l-3 103 -62 -52z"/>
<path d="M1590 785 l0 -105 -60 0 -60 0 0 -95 0 -95 65 0 65 0 0 60 0 60 105 0 105 0 0 -122 0 -122 -42 -46 -43 -45 48 45 48 45 -3 125 -3 125 -110 0 -110 0 -3 -57 -3 -58 -54 0 -55 0 0 85 0 85 60 0 60 0 0 110 c0 61 -2 110 -5 110 -3 0 -5 -47 -5 -105z"/>
<path d="M4190 785 l0 -105 -60 0 -60 0 0 -95 0 -95 65 0 65 0 0 60 0 60 105 0 105 0 0 -122 0 -122 -42 -46 -43 -45 48 45 48 45 -3 125 -3 125 -110 0 -110 0 -3 -57 -3 -58 -54 0 -55 0 0 85 0 85 60 0 60 0 0 110 c0 61 -2 110 -5 110 -3 0 -5 -47 -5 -105z"/>
<path d="M5820 785 l0 -105 -60 0 -60 0 0 -95 0 -95 65 0 65 0 0 60 0 60 105 0 105 0 0 -122 0 -122 -42 -46 -43 -45 48 45 48 45 -3 125 -3 125 -110 0 -110 0 -3 -57 -3 -58 -54 0 -55 0 0 85 0 85 60 0 60 0 0 110 c0 61 -2 110 -5 110 -3 0 -5 -47 -5 -105z"/>
<path d="M6870 650 l0 -160 65 0 65 0 0 160 0 160 -65 0 -65 0 0 -160z m120 0 l0 -150 -55 0 -55 0 0 150 0 150 55 0 55 0 0 -150z"/>
<path d="M7558 719 c-43 -21 -78 -41 -78 -44 0 -3 36 13 80 35 44 22 80 42 80 45 0 7 4 8 -82 -36z"/>
<path d="M7457 663 c-4 -3 -7 -46 -7 -95 l0 -88 65 0 65 0 0 30 0 30 105 0 105 0 0 -86 c0 -84 -1 -88 -36 -133 l-36 -46 41 44 41 44 0 93 0 94 -115 0 -115 0 0 -30 c0 -30 0 -30 -56 -30 l-55 0 3 90 c2 50 3 90 2 90 0 0 -4 -3 -7 -7z"/>
<path d="M880 570 l0 -90 65 0 65 0 0 54 c0 30 -3 57 -7 59 -5 3 -6 -19 -5 -49 l4 -54 -56 0 -56 0 0 80 0 81 45 -27 c25 -14 45 -24 45 -21 0 6 -85 57 -94 57 -3 0 -6 -40 -6 -90z"/>
<path d="M3480 570 l0 -90 65 0 65 0 0 54 c0 30 -3 57 -7 59 -5 3 -6 -19 -5 -49 l4 -54 -56 0 -56 0 0 80 0 81 45 -27 c25 -14 45 -24 45 -21 0 6 -85 57 -94 57 -3 0 -6 -40 -6 -90z"/>
<path d="M6280 575 l0 -85 65 0 65 0 0 49 c0 28 -3 52 -7 54 -5 3 -6 -17 -5 -44 l4 -49 -56 0 -56 0 0 75 0 76 45 -27 c25 -14 45 -24 45 -21 0 6 -85 57 -94 57 -3 0 -6 -38 -6 -85z"/>
<path d="M503 533 l107 -4 0 -87 0 -87 -60 -34 c-33 -19 -58 -36 -56 -38 2 -2 31 13 65 33 l61 36 0 94 0 94 -112 -2 -113 -2 108 -3z"/>
<path d="M1270 362 c0 -4 19 -26 42 -47 l41 -40 -38 48 c-40 49 -45 53 -45 39z"/>
<path d="M1850 362 c0 -4 19 -26 42 -47 l41 -40 -38 48 c-40 49 -45 53 -45 39z"/>
<path d="M2440 362 c0 -4 19 -26 42 -47 l41 -40 -38 48 c-40 49 -45 53 -45 39z"/>
<path d="M3870 362 c0 -4 19 -26 42 -47 l41 -40 -38 48 c-40 49 -45 53 -45 39z"/>
<path d="M5500 362 c0 -4 19 -26 42 -47 l41 -40 -38 48 c-40 49 -45 53 -45 39z"/>
<path d="M6080 362 c0 -4 19 -26 42 -47 l41 -40 -38 48 c-40 49 -45 53 -45 39z"/>
<path d="M6670 362 c0 -4 19 -26 42 -47 l41 -40 -38 48 c-40 49 -45 53 -45 39z"/>
<path d="M700 320 c11 -16 26 -33 32 -36 7 -4 -1 9 -16 29 -34 44 -46 50 -16 7z"/>
<path d="M3300 320 c11 -16 26 -33 32 -36 7 -4 -1 9 -16 29 -34 44 -46 50 -16 7z"/>
<path d="M7270 320 c11 -16 26 -33 32 -36 7 -4 -1 9 -16 29 -34 44 -46 50 -16 7z"/>
<path d="M3073 233 c31 -2 83 -2 115 0 31 2 5 3 -58 3 -63 0 -89 -1 -57 -3z"/>
<path d="M3073 43 c31 -2 83 -2 115 0 31 2 5 3 -58 3 -63 0 -89 -1 -57 -3z"/>
</g>


</svg>