<!DOCTYPE svg PUBLIC "-//W3C//DTD SVG 20010904//EN" "http://www.w3.org/TR/2001/REC-SVG-20010904/DTD/svg10.dtd">
<svg version="1.0" xmlns="http://www.w3.org/2000/svg" width="783px" height="173px" viewBox="0 0 7830 1730" preserveAspectRatio="xMidYMid meet">
<g id="layer101" fill="#000000" stroke="none">
<path d="M4250 1710 c-24 -24 -24 -21 -5 -90 12 -46 15 -159 15 -663 0 -594 0 -609 -20 -634 -24 -31 -25 -46 -4 -67 13 -14 51 -16 255 -16 l241 0 69 41 70 42 42 -42 43 -41 215 0 216 0 23 25 23 25 11 -23 c11 -21 18 -22 137 -25 97 -2 129 1 137 11 8 10 13 131 14 402 2 300 6 389 16 393 9 3 12 -79 12 -386 0 -342 2 -393 16 -406 13 -14 64 -16 398 -16 l382 0 34 35 34 35 29 -35 28 -35 232 0 c224 0 231 1 254 22 l23 22 16 -22 c14 -21 23 -22 138 -22 81 0 126 4 134 12 8 8 12 60 12 170 0 134 2 158 15 158 13 0 15 -24 15 -154 0 -127 3 -157 16 -170 12 -13 40 -16 143 -16 85 0 131 4 139 12 9 9 12 129 12 477 0 257 -4 471 -8 477 -9 14 -322 244 -331 244 -10 0 -65 -40 -180 -133 l-94 -75 -56 36 c-31 20 -83 53 -115 74 -33 21 -63 38 -68 38 -4 0 -17 -9 -28 -20 -19 -19 -20 -33 -20 -214 0 -163 -2 -195 -15 -200 -13 -5 -15 22 -15 204 0 203 -1 209 -22 224 -26 19 -31 16 -165 -81 -109 -79 -111 -82 -115 -174 l-3 -57 -259 179 c-143 99 -262 179 -266 179 -3 0 -15 -6 -26 -14 -15 -11 -20 -30 -24 -91 l-5 -77 -139 101 c-76 56 -142 101 -147 101 -4 0 -65 -45 -134 -100 -68 -55 -128 -100 -132 -100 -3 0 -47 31 -97 68 -131 98 -143 104 -170 76 -13 -13 -16 -43 -16 -175 0 -135 -2 -159 -15 -159 -13 0 -15 24 -15 159 0 132 -3 162 -16 175 -28 29 -42 21 -193 -101 -30 -24 -57 -40 -60 -36 -6 8 -456 368 -545 437 -55 42 -59 43 -86 16z m325 -271 l260 -207 -3 -143 -3 -144 -95 -50 c-109 -58 -110 -50 20 -123 l76 -42 0 -188 0 -187 -65 -38 -64 -37 -210 0 c-116 0 -211 4 -211 8 0 4 5 13 10 18 7 7 10 229 8 681 -2 446 0 669 7 665 6 -3 127 -99 270 -213z m1306 -155 l138 -99 0 -452 1 -453 -105 0 -105 0 0 440 c0 242 -3 440 -6 440 -3 0 -32 -23 -65 -51 l-59 -52 0 -388 0 -389 -100 0 -100 0 0 458 0 457 123 97 c67 54 126 96 131 95 6 -2 72 -48 147 -103z m1754 3 l140 -103 3 -452 2 -452 -105 0 -105 0 0 175 0 175 -65 0 -65 0 0 -175 0 -175 -100 0 -100 0 0 295 0 295 165 0 165 0 0 145 c0 80 -3 145 -6 145 -4 0 -33 -23 -65 -51 -57 -49 -59 -53 -59 -100 l0 -49 -100 0 -100 0 0 118 0 119 121 96 c67 53 125 97 128 97 3 0 69 -47 146 -103z m-1280 -110 l250 -173 3 -319 2 -319 -42 -43 -42 -43 -228 0 -228 0 0 545 c0 517 1 545 18 536 9 -6 130 -88 267 -184z m-1190 -167 l65 0 0 170 c0 94 3 170 6 170 3 0 50 -34 105 -76 l99 -76 0 -417 0 -417 -43 -42 -43 -42 -186 0 -186 0 -41 47 -41 48 0 411 0 411 98 77 97 78 3 -171 2 -171 65 0z m1752 -110 l63 39 2 196 3 197 103 -67 102 -67 0 -179 0 -179 -70 -37 c-38 -21 -70 -40 -70 -43 0 -3 32 -23 70 -44 l70 -37 0 -156 0 -156 -36 -43 -35 -44 -204 0 -203 0 -31 39 -31 39 0 419 0 419 98 70 97 70 5 -238 5 -238 62 40z m603 90 c0 -69 0 -70 -27 -70 -21 0 -24 3 -15 12 7 7 12 33 12 58 0 38 12 70 27 70 2 0 3 -31 3 -70z m-2670 -151 l0 -60 -50 27 c-27 15 -50 30 -50 33 0 5 88 60 98 61 1 0 2 -27 2 -61z m2336 -97 c-4 -3 -12 0 -19 7 -9 9 -9 14 3 21 11 7 16 5 18 -6 2 -9 1 -18 -2 -22z"/>
<path d="M4500 1086 l0 -136 24 10 c14 5 48 21 75 35 49 24 51 27 51 68 0 41 -2 44 -75 100 l-75 58 0 -135z m82 7 c23 -21 23 -40 -1 -53 -29 -15 -31 -13 -31 30 0 44 5 48 32 23z"/>
<path d="M4490 610 l0 -120 80 0 80 0 0 78 0 77 -71 43 c-38 23 -74 42 -80 42 -5 0 -9 -51 -9 -120z m110 -30 c0 -38 -2 -40 -30 -40 -30 0 -30 1 -30 55 l0 56 30 -16 c26 -13 30 -21 30 -55z"/>
<path d="M6270 751 l0 -261 65 0 65 0 0 219 0 218 -37 25 c-21 14 -50 33 -65 42 l-28 18 0 -261z m80 -32 c0 -152 -2 -179 -15 -179 -13 0 -15 28 -15 191 0 169 2 190 15 179 12 -10 15 -45 15 -191z"/>
<path d="M5100 650 l0 -160 65 0 65 0 0 160 0 160 -65 0 -65 0 0 -160z m80 0 c0 -91 -3 -110 -15 -110 -12 0 -15 19 -15 110 0 91 3 110 15 110 12 0 15 -19 15 -110z"/>
<path d="M6850 570 l0 -90 65 0 65 0 0 54 0 55 -59 35 c-32 20 -61 36 -65 36 -3 0 -6 -40 -6 -90z m80 -26 c0 -8 -7 -14 -15 -14 -10 0 -15 10 -15 26 0 22 2 25 15 14 8 -7 15 -19 15 -26z"/>
<path d="M39 1699 c-14 -14 -18 -26 -12 -37 4 -9 9 -309 11 -665 2 -638 2 -649 -18 -674 -24 -31 -25 -46 -4 -67 13 -14 51 -16 255 -16 l241 0 69 41 70 42 42 -42 43 -41 214 0 c206 0 215 1 237 22 l23 22 16 -22 c15 -22 18 -22 299 -22 248 0 286 2 300 16 15 15 17 15 34 0 15 -14 50 -16 246 -16 221 0 229 1 252 22 17 16 23 18 24 7 0 -8 0 -64 -1 -125 -1 -147 -5 -144 150 -144 155 0 151 -3 150 144 -2 167 -5 154 28 123 l28 -27 214 0 214 0 26 25 27 26 17 -26 c16 -25 19 -25 139 -25 82 0 127 4 135 12 8 8 12 61 12 171 0 141 2 158 15 147 12 -10 15 -41 15 -156 0 -116 3 -145 16 -158 21 -22 265 -23 283 -2 8 9 11 79 9 232 l-3 218 -35 24 c-19 13 -36 26 -37 30 -1 4 16 19 37 34 l40 28 0 187 c0 104 -4 193 -8 199 -10 15 -242 184 -253 184 -5 0 -18 -9 -29 -20 -19 -19 -20 -33 -20 -214 0 -163 -2 -195 -15 -200 -13 -5 -15 21 -15 194 0 191 -1 199 -21 214 -27 18 -32 16 -160 -64 l-105 -67 -135 99 c-162 120 -164 121 -187 109 -9 -5 -69 -51 -132 -101 -63 -51 -121 -94 -127 -97 -7 -3 -52 24 -100 59 -116 85 -128 91 -153 78 -22 -12 -23 -15 -20 -78 l2 -43 -39 24 c-21 13 -67 43 -102 66 -35 22 -68 41 -73 41 -4 0 -17 -9 -28 -20 -19 -19 -20 -33 -20 -214 0 -163 -2 -195 -15 -200 -13 -5 -15 22 -15 204 0 203 -1 209 -22 224 -16 12 -26 13 -42 4 -45 -23 -224 -159 -230 -174 -3 -8 -6 -155 -6 -325 l0 -309 -55 0 -55 0 -2 322 -3 322 -95 74 c-150 117 -166 125 -194 96 -14 -13 -16 -65 -16 -415 l0 -399 -50 0 -50 0 0 318 0 318 -27 26 c-36 33 -182 141 -210 156 -29 16 -39 15 -57 -4 -13 -13 -16 -43 -16 -175 0 -135 -2 -159 -15 -159 -13 0 -15 24 -15 159 0 132 -3 162 -16 175 -23 23 -37 20 -91 -21 -124 -94 -184 -147 -188 -167 -3 -11 -6 -60 -8 -107 l-2 -86 -145 81 -145 82 -3 127 c-2 79 1 127 7 127 15 0 32 36 25 54 -6 15 -228 200 -268 223 -29 17 -33 16 -57 -8z m255 -227 c-11 -3 -14 -37 -14 -165 l1 -162 164 -90 165 -90 0 -305 0 -305 -65 -37 -64 -38 -210 0 c-193 0 -233 5 -201 25 7 4 10 242 10 681 l0 674 114 -92 c62 -51 107 -94 100 -96z m2781 -185 l140 -103 3 -112 3 -112 -106 0 -105 0 0 100 c0 55 -3 100 -6 100 -4 0 -33 -23 -65 -51 l-59 -51 0 -284 0 -284 65 0 65 0 0 60 0 60 105 0 105 0 0 -123 0 -123 -43 -42 -43 -42 -186 0 -186 0 -41 47 -41 48 0 411 0 411 121 96 c67 53 125 97 128 97 3 0 69 -47 146 -103z m-2130 -277 l65 0 0 170 c0 94 3 170 6 170 3 0 50 -34 105 -76 l99 -76 0 -417 0 -417 -43 -42 -43 -42 -186 0 -186 0 -41 47 -41 48 0 411 0 411 98 77 97 78 3 -171 2 -171 65 0z m593 257 l92 -69 0 -334 0 -334 80 0 80 0 0 -125 0 -125 -265 0 -265 0 0 125 0 125 80 0 80 0 0 411 c0 325 3 409 13 403 6 -4 54 -39 105 -77z m569 -367 l63 39 2 196 3 197 103 -67 102 -67 0 -179 0 -179 -70 -37 c-38 -21 -70 -40 -70 -43 0 -3 32 -23 70 -44 l70 -37 0 -156 0 -156 -36 -43 -35 -44 -204 0 -203 0 -31 39 -31 39 0 419 0 419 98 70 97 70 5 -238 5 -238 62 40z m431 351 l102 -74 0 -449 0 -448 -110 0 -110 0 0 526 c0 289 4 524 8 522 5 -1 54 -36 110 -77z m1180 -3 l92 -68 0 -170 0 -170 -70 -37 c-38 -21 -70 -40 -70 -43 0 -3 32 -23 70 -44 l70 -37 0 -200 0 -199 -105 0 -105 0 0 154 0 155 -59 35 c-32 20 -61 36 -65 36 -3 0 -6 -85 -6 -190 l0 -190 -100 0 -100 0 0 458 0 459 98 61 97 61 5 -229 5 -230 63 40 62 39 0 196 c0 154 3 195 13 189 6 -5 54 -39 105 -76z m-734 -324 c14 -10 50 -14 128 -14 l108 0 0 -125 0 -125 -110 0 c-129 0 -150 -11 -150 -80 0 -29 -4 -40 -15 -40 -13 0 -15 34 -15 248 0 185 3 251 13 261 10 10 13 0 17 -49 4 -46 10 -65 24 -76z m-608 -182 c-4 -3 -12 0 -19 7 -9 9 -9 14 3 21 11 7 16 5 18 -6 2 -9 1 -18 -2 -22z m264 -602 l0 -90 -110 0 -110 0 0 90 0 90 110 0 110 0 0 -90z"/>
<path d="M270 710 l0 -220 80 0 80 0 0 178 0 177 -74 43 c-40 23 -76 42 -79 42 -4 0 -7 -99 -7 -220z m110 -32 l0 -138 -30 0 -30 0 0 156 0 155 30 -18 30 -17 0 -138z"/>
<path d="M880 650 l0 -160 65 0 65 0 0 160 0 160 -65 0 -65 0 0 -160z m80 0 c0 -91 -3 -110 -15 -110 -12 0 -15 19 -15 110 0 91 3 110 15 110 12 0 15 -19 15 -110z"/>
<path d="M2040 570 l0 -90 65 0 65 0 0 54 0 55 -59 35 c-32 20 -61 36 -65 36 -3 0 -6 -40 -6 -90z m80 -26 c0 -8 -7 -14 -15 -14 -10 0 -15 10 -15 26 0 22 2 25 15 14 8 -7 15 -19 15 -26z"/>
</g>
<g id="layer102" fill="#292929" stroke="none">
<path d="M4277 1658 c12 -60 23 -86 17 -39 -5 35 -4 42 7 35 8 -4 131 -101 274 -215 l260 -207 -3 -143 -3 -144 -95 -50 c-109 -58 -110 -50 20 -123 l76 -42 0 -188 0 -187 -60 -34 c-33 -19 -58 -37 -55 -39 2 -2 31 12 64 33 l61 36 0 193 0 192 -77 44 c-116 65 -115 57 -13 112 l90 49 2 139 c0 77 1 144 2 148 1 7 -524 432 -561 455 -10 6 -11 0 -6 -25z"/>
<path d="M68 1658 c3 -12 7 -17 9 -11 3 7 55 -29 117 -80 62 -51 107 -93 100 -95 -11 -3 -14 -37 -14 -165 l1 -162 164 -90 165 -90 0 -305 0 -305 -60 -34 c-33 -19 -58 -37 -55 -39 2 -2 31 12 65 33 l60 37 -2 310 -3 310 -162 91 -163 91 0 152 c0 150 0 153 22 156 19 2 -2 23 -109 111 -72 59 -134 107 -136 107 -3 0 -3 -10 1 -22z"/>
<path d="M2793 1299 l-123 -100 0 -417 1 -417 40 -42 c54 -58 60 -54 10 5 l-41 48 0 410 0 410 115 93 c64 50 121 94 128 96 7 3 75 -41 152 -98 l140 -103 3 -112 3 -112 -106 0 -105 0 0 100 c0 55 -3 100 -6 100 -4 0 -33 -23 -65 -51 l-59 -51 0 -284 0 -284 65 0 65 0 0 60 0 60 105 0 105 0 0 -123 0 -123 -40 -39 c-22 -21 -37 -41 -35 -44 3 -2 23 13 45 34 l40 39 0 133 0 133 -115 0 -115 0 0 -60 0 -60 -55 0 -55 0 0 278 0 278 53 43 52 43 3 -96 3 -96 114 0 115 0 0 118 0 118 -145 107 c-80 59 -151 107 -158 106 -6 0 -67 -45 -134 -100z"/>
<path d="M5607 1311 c-114 -93 -135 -111 -125 -111 3 0 59 43 124 95 66 52 123 94 128 92 6 -2 72 -48 147 -103 l138 -99 3 -455 3 -455 3 456 2 456 -145 107 c-80 58 -151 106 -158 105 -6 0 -61 -40 -120 -88z"/>
<path d="M7353 1299 l-123 -100 2 -122 2 -122 6 123 5 122 119 95 c65 52 121 95 125 95 3 0 69 -47 146 -103 l140 -103 5 -455 5 -454 3 455 2 456 -145 107 c-80 59 -151 107 -158 106 -6 0 -67 -45 -134 -100z"/>
<path d="M6062 828 l3 -553 5 548 5 547 265 -183 265 -183 3 -319 2 -319 -42 -43 c-23 -24 -38 -43 -32 -43 5 0 27 17 47 38 l37 38 0 325 0 325 -267 185 c-147 101 -273 185 -280 187 -11 3 -13 -97 -11 -550z"/>
<path d="M775 1287 l-100 -83 -2 -420 -3 -419 41 -43 c54 -57 60 -53 10 6 l-41 48 0 410 0 411 98 77 97 78 3 -171 2 -171 65 0 65 0 0 170 c0 94 3 170 6 170 3 0 50 -34 105 -76 l99 -76 0 -417 0 -417 -40 -39 c-22 -21 -37 -41 -35 -44 3 -2 23 13 45 34 l40 39 0 426 0 425 -110 83 c-60 45 -112 82 -115 82 -3 0 -5 -79 -5 -175 l0 -175 -55 0 -55 0 0 175 c0 96 -3 175 -7 175 -5 -1 -53 -38 -108 -83z"/>
<path d="M1412 948 l3 -423 5 413 5 413 102 -76 103 -77 3 -336 2 -337 2 340 2 340 -106 80 c-59 44 -110 82 -115 83 -4 2 -7 -187 -6 -420z"/>
<path d="M4995 1287 l-100 -83 -2 -420 -3 -419 41 -43 c54 -57 60 -53 10 6 l-41 48 0 410 0 411 98 77 97 78 3 -171 2 -171 65 0 65 0 0 170 c0 94 3 170 6 170 3 0 50 -34 105 -76 l99 -76 0 -417 0 -417 -40 -39 c-22 -21 -37 -41 -35 -44 3 -2 23 13 45 34 l40 39 0 426 0 425 -110 83 c-60 45 -112 82 -115 82 -3 0 -5 -79 -5 -175 l0 -175 -55 0 -55 0 0 175 c0 96 -3 175 -7 175 -5 -1 -53 -38 -108 -83z"/>
<path d="M1935 1277 l-100 -73 -3 -423 -2 -423 27 -39 c16 -21 32 -39 36 -39 5 0 -5 18 -22 39 l-31 39 0 419 0 419 100 72 100 71 2 -239 3 -240 62 40 63 39 2 196 3 197 103 -67 102 -67 0 -179 0 -179 -70 -37 c-38 -21 -70 -40 -70 -43 0 -3 32 -23 70 -44 l70 -37 0 -156 0 -156 -36 -43 c-19 -24 -32 -44 -27 -44 5 0 23 19 41 42 l32 42 0 160 0 161 -64 35 c-36 19 -62 38 -60 42 2 4 31 22 64 40 l60 33 0 185 0 185 -113 72 -112 72 -5 -204 -5 -204 -48 -31 c-26 -16 -50 -30 -52 -30 -3 0 -5 106 -5 235 0 129 -3 235 -7 235 -5 0 -53 -33 -108 -73z"/>
<path d="M2420 1342 c1 -11 220 -169 220 -158 0 2 -49 41 -110 85 -60 45 -110 78 -110 73z"/>
<path d="M3590 1147 l0 -204 -51 -32 c-28 -17 -52 -31 -54 -31 -3 0 -6 103 -7 230 l-3 229 -107 -69 -108 -70 2 -462 3 -463 5 462 5 462 95 60 95 60 5 -229 5 -230 62 40 63 39 2 196 3 196 103 -76 102 -75 0 -170 0 -170 -70 -37 c-38 -21 -70 -40 -70 -43 0 -3 31 -23 70 -43 l70 -38 3 -202 2 -202 3 205 2 205 -64 35 c-36 19 -62 38 -60 42 2 4 31 22 64 40 l60 33 0 176 0 176 -102 74 c-56 41 -107 78 -115 82 -11 7 -13 -29 -13 -196z"/>
<path d="M6745 1277 l-100 -73 -3 -423 -2 -423 27 -39 c16 -21 32 -39 36 -39 5 0 -5 18 -22 39 l-31 39 0 419 0 419 100 72 100 71 2 -239 3 -240 62 40 63 39 2 196 3 197 103 -67 102 -67 0 -179 0 -179 -70 -37 c-38 -21 -70 -40 -70 -43 0 -3 32 -23 70 -44 l70 -37 0 -156 0 -156 -36 -43 c-19 -24 -32 -44 -27 -44 5 0 23 19 41 42 l32 42 0 160 0 161 -64 35 c-36 19 -62 38 -60 42 2 4 31 22 64 40 l60 33 0 185 0 185 -113 72 -112 72 -5 -204 -5 -204 -48 -31 c-26 -16 -50 -30 -52 -30 -3 0 -5 106 -5 235 0 129 -3 235 -7 235 -5 0 -53 -33 -108 -73z"/>
<path d="M4500 1086 l0 -136 24 10 c14 5 48 21 75 35 49 24 51 27 51 68 0 41 -2 44 -75 100 l-75 58 0 -135z m138 -23 l3 -40 -61 -26 c-34 -15 -63 -27 -66 -27 -2 0 -4 52 -4 116 l0 116 63 -50 c55 -44 62 -54 65 -89z"/>
<path d="M5737 1107 l-57 -52 2 -390 3 -390 3 390 3 390 52 43 52 43 5 -433 5 -433 3 443 c1 243 -1 442 -5 442 -5 -1 -34 -24 -66 -53z"/>
<path d="M7497 1107 c-58 -52 -58 -52 -55 -102 l4 -50 2 50 c2 47 6 54 45 86 71 59 67 64 67 -80 l0 -131 -162 -2 -163 -3 0 -300 0 -300 2 298 3 297 165 0 165 0 0 145 c0 80 -3 145 -7 145 -5 0 -34 -24 -66 -53z"/>
<path d="M6270 751 l0 -261 65 0 65 0 0 219 0 218 -37 25 c-21 14 -50 33 -65 42 l-28 18 0 -261z m103 185 c15 -10 17 -32 17 -223 l0 -213 -55 0 -55 0 0 246 0 246 38 -23 c20 -13 45 -28 55 -33z"/>
<path d="M270 710 l0 -220 80 0 80 0 0 178 0 177 -74 43 c-40 23 -76 42 -79 42 -4 0 -7 -99 -7 -220z m103 156 l47 -28 0 -169 0 -169 -70 0 -70 0 0 211 0 211 23 -14 c12 -8 43 -27 70 -42z"/>
<path d="M4490 610 l0 -120 80 0 80 0 0 78 0 77 -71 43 c-38 23 -74 42 -80 42 -5 0 -9 -51 -9 -120z m88 66 l62 -37 0 -70 0 -69 -70 0 -70 0 0 111 c0 60 3 108 8 106 4 -2 35 -21 70 -41z"/>
<path d="M2040 570 l0 -90 65 0 65 0 0 54 0 55 -59 35 c-32 20 -61 36 -65 36 -3 0 -6 -40 -6 -90z m120 -32 l0 -48 -55 0 -55 0 0 80 0 79 55 -32 c54 -32 55 -33 55 -79z"/>
<path d="M3472 468 l3 -193 2 187 3 187 55 -32 54 -32 3 -155 4 -155 2 157 2 157 -59 35 c-32 20 -61 36 -65 36 -3 0 -5 -87 -4 -192z"/>
<path d="M6850 570 l0 -90 65 0 65 0 0 54 0 55 -59 35 c-32 20 -61 36 -65 36 -3 0 -6 -40 -6 -90z m120 -32 l0 -48 -55 0 -55 0 0 80 0 79 55 -32 c54 -32 55 -33 55 -79z"/>
<path d="M1254 405 c0 -72 1 -99 3 -62 2 37 2 96 0 130 -2 34 -3 4 -3 -68z"/>
<path d="M57 304 c-10 -13 -14 -24 -10 -24 9 0 36 40 31 45 -2 2 -11 -8 -21 -21z"/>
<path d="M4277 304 c-10 -13 -14 -24 -10 -24 9 0 36 40 31 45 -2 2 -11 -8 -21 -21z"/>
</g>
<g id="layer103" fill="#4b4b4b" stroke="none">
<path d="M4278 1653 c4 -22 6 -24 11 -10 5 15 56 -21 276 -196 l270 -214 -3 -145 -3 -145 -50 -24 c-28 -12 -53 -27 -56 -32 -3 -4 22 6 56 23 l61 30 0 134 c0 74 2 140 4 148 4 11 -530 445 -560 455 -7 2 -10 -6 -6 -24z"/>
<path d="M70 1660 c0 -5 3 -9 8 -7 4 1 57 -38 118 -88 85 -68 108 -92 95 -97 -12 -5 -11 -7 7 -7 12 -1 22 3 22 7 0 8 -235 202 -244 202 -4 0 -6 -4 -6 -10z"/>
<path d="M2809 1310 c-63 -51 -118 -97 -124 -103 -16 -17 9 1 129 96 59 48 111 87 115 87 3 0 69 -47 146 -103 l140 -103 6 -115 5 -114 2 115 1 115 -141 103 c-77 57 -146 106 -153 108 -6 3 -63 -36 -126 -86z"/>
<path d="M5610 1309 c-125 -99 -137 -109 -128 -109 3 0 59 43 124 95 66 52 123 94 128 92 6 -2 72 -48 147 -103 l138 -99 3 -455 3 -455 3 455 2 456 -141 102 c-77 57 -146 105 -152 108 -7 2 -64 -37 -127 -87z"/>
<path d="M7369 1310 c-63 -51 -118 -97 -124 -103 -16 -17 9 1 129 96 59 48 111 87 115 87 3 0 69 -47 146 -103 l140 -103 5 -455 5 -454 2 455 2 455 -141 103 c-77 57 -146 106 -153 108 -6 3 -63 -36 -126 -86z"/>
<path d="M6062 829 l3 -554 5 548 5 547 265 -183 265 -183 3 -319 2 -319 -42 -45 -43 -46 48 45 47 44 0 321 0 320 -266 183 c-146 101 -272 186 -280 189 -12 4 -14 -78 -12 -548z"/>
<path d="M790 1294 c-52 -41 -99 -81 -105 -87 -15 -17 9 1 105 78 l85 67 3 -171 2 -171 65 0 65 0 0 170 c0 94 3 170 6 170 3 0 50 -34 105 -76 l99 -76 0 -416 0 -416 -42 -46 -43 -45 48 45 47 44 0 421 -1 420 -112 83 -112 83 -3 -175 -2 -176 -55 0 -55 0 -2 175 -3 175 -95 -76z"/>
<path d="M1412 948 l3 -423 5 413 5 413 102 -76 103 -77 3 -336 2 -337 3 337 2 337 -102 79 c-57 43 -109 82 -115 86 -10 6 -13 -80 -11 -416z"/>
<path d="M5010 1294 c-52 -41 -99 -81 -105 -87 -15 -17 9 1 105 78 l85 67 3 -171 2 -171 65 0 65 0 0 170 c0 94 3 170 6 170 3 0 50 -34 105 -76 l99 -76 0 -416 0 -416 -42 -46 -43 -45 48 45 47 44 0 421 -1 420 -112 83 -112 83 -3 -175 -2 -176 -55 0 -55 0 -2 175 -3 175 -95 -76z"/>
<path d="M1941 1280 c-51 -38 -96 -72 -100 -76 -12 -14 24 10 111 73 l88 63 2 -240 3 -240 62 40 63 39 2 196 3 197 103 -67 102 -67 0 -179 0 -179 -70 -37 c-38 -21 -70 -40 -70 -43 0 -3 32 -23 70 -44 l70 -37 0 -156 0 -156 -36 -46 -36 -46 41 44 41 44 -2 161 -3 161 -62 34 c-35 19 -63 37 -63 40 0 3 29 22 65 41 l65 35 0 183 0 182 -106 70 c-58 39 -110 70 -115 70 -5 0 -9 -87 -9 -199 l0 -199 -50 -31 c-28 -17 -52 -31 -55 -31 -3 0 -5 106 -5 235 0 129 -3 235 -7 235 -5 -1 -50 -32 -102 -70z"/>
<path d="M6751 1280 c-51 -38 -96 -72 -100 -76 -12 -14 24 10 111 73 l88 63 2 -240 3 -240 62 40 63 39 2 196 3 197 103 -67 102 -67 0 -179 0 -179 -70 -37 c-38 -21 -70 -40 -70 -43 0 -3 32 -23 70 -44 l70 -37 0 -156 0 -156 -36 -46 -36 -46 41 44 41 44 -2 161 -3 161 -62 34 c-35 19 -63 37 -63 40 0 3 29 22 65 41 l65 35 0 183 0 182 -106 70 c-58 39 -110 70 -115 70 -5 0 -9 -87 -9 -199 l0 -199 -50 -31 c-28 -17 -52 -31 -55 -31 -3 0 -5 106 -5 235 0 129 -3 235 -7 235 -5 -1 -50 -32 -102 -70z"/>
<path d="M2515 1267 c101 -74 139 -99 120 -80 -19 19 -204 153 -211 153 -5 0 37 -33 91 -73z"/>
<path d="M3590 1142 l0 -200 -50 -31 c-28 -17 -52 -31 -55 -31 -3 0 -5 101 -5 225 0 124 -3 225 -7 225 -8 0 -203 -122 -203 -127 0 -6 33 13 118 67 l77 50 5 -230 5 -230 62 40 63 39 2 196 3 196 103 -76 102 -75 0 -170 0 -170 -70 -37 c-38 -21 -70 -40 -70 -43 0 -3 31 -23 70 -43 l70 -38 3 -197 3 -197 -1 200 0 200 -62 34 c-35 19 -63 37 -63 40 0 3 29 22 65 41 l65 35 0 175 -1 175 -101 73 c-55 41 -107 76 -114 79 -12 4 -14 -29 -14 -195z"/>
<path d="M4500 1212 c0 -6 6 -12 13 -15 6 -2 38 -26 70 -51 51 -42 57 -51 57 -85 0 -36 -2 -38 -60 -66 -33 -16 -58 -30 -56 -32 2 -3 31 10 65 26 60 31 61 32 61 74 0 41 -2 44 -75 100 -41 32 -75 54 -75 49z"/>
<path d="M280 1151 c0 -3 75 -46 165 -96 l165 -90 0 -305 0 -305 -60 -34 c-33 -19 -58 -36 -56 -38 2 -2 31 13 65 33 l61 36 0 308 0 308 -170 95 c-93 52 -170 92 -170 88z"/>
<path d="M2937 1107 l-58 -52 1 -282 0 -283 65 0 65 0 0 60 0 60 105 0 105 0 0 -122 0 -122 -42 -46 -43 -45 48 45 48 45 -3 125 -3 125 -110 0 -110 0 -3 -58 -3 -57 -54 0 -55 0 0 278 0 278 55 47 54 48 4 -98 3 -98 2 103 c1 56 -1 102 -5 102 -5 0 -34 -24 -66 -53z"/>
<path d="M5737 1107 l-57 -52 2 -390 3 -390 3 390 2 390 49 43 c28 23 52 42 55 42 3 0 7 -195 9 -432 l2 -433 3 443 c1 243 -1 442 -5 442 -5 -1 -34 -24 -66 -53z"/>
<path d="M7497 1107 c-58 -52 -58 -52 -55 -102 l4 -50 2 51 c2 48 5 53 57 98 l55 47 0 -135 0 -136 -162 -3 -163 -3 168 -2 167 -2 0 145 c0 80 -3 145 -7 145 -5 0 -34 -24 -66 -53z"/>
<path d="M6270 751 l0 -261 65 0 65 0 0 219 0 218 -37 25 c-21 14 -50 33 -65 42 l-28 18 0 -261z m70 207 l50 -33 0 -212 0 -213 -55 0 -55 0 0 245 c0 135 2 245 5 245 3 0 28 -15 55 -32z"/>
<path d="M270 710 l0 -220 80 0 80 0 0 178 0 177 -74 43 c-40 23 -76 42 -79 42 -4 0 -7 -99 -7 -220z m88 166 l62 -37 0 -170 0 -169 -70 0 -70 0 0 211 c0 115 3 208 8 206 4 -2 35 -21 70 -41z"/>
<path d="M4671 861 l-34 -18 24 -15 c13 -9 57 -34 97 -57 l72 -42 0 -187 0 -187 -60 -34 c-33 -19 -58 -36 -56 -38 2 -2 31 13 65 33 l61 36 0 192 0 191 -90 50 c-80 45 -106 65 -82 65 5 0 17 7 28 15 26 19 16 18 -25 -4z"/>
<path d="M880 650 l0 -160 65 0 65 0 0 160 0 160 -65 0 -65 0 0 -160z m120 0 l0 -150 -55 0 -55 0 0 150 0 150 55 0 55 0 0 -150z"/>
<path d="M5100 650 l0 -160 65 0 65 0 0 160 0 160 -65 0 -65 0 0 -160z m120 0 l0 -150 -55 0 -55 0 0 150 0 150 55 0 55 0 0 -150z"/>
<path d="M4490 610 l0 -120 80 0 80 0 0 78 0 77 -71 43 c-38 23 -74 42 -80 42 -5 0 -9 -51 -9 -120z m85 71 l60 -38 3 -71 3 -72 -71 0 -70 0 0 110 c0 61 3 110 8 109 4 0 34 -17 67 -38z"/>
<path d="M2040 570 l0 -90 65 0 65 0 0 54 c0 30 -3 57 -7 59 -5 3 -6 -19 -5 -49 l4 -54 -56 0 -56 0 0 80 0 81 45 -27 c25 -14 45 -24 45 -21 0 6 -85 57 -94 57 -3 0 -6 -40 -6 -90z"/>
<path d="M3472 468 l3 -193 2 188 3 188 45 -27 c25 -14 45 -24 45 -21 0 6 -85 57 -94 57 -3 0 -5 -87 -4 -192z"/>
<path d="M6850 570 l0 -90 65 0 65 0 0 54 c0 30 -3 57 -7 59 -5 3 -6 -19 -5 -49 l4 -54 -56 0 -56 0 0 80 0 81 45 -27 c25 -14 45 -24 45 -21 0 6 -85 57 -94 57 -3 0 -6 -40 -6 -90z"/>
<path d="M7442 453 l2 -178 3 173 3 172 55 0 55 0 3 -172 3 -173 2 178 2 177 -65 0 -65 0 2 -177z"/>
<path d="M3590 437 l5 -162 3 154 c1 85 -1 158 -5 162 -5 5 -6 -65 -3 -154z"/>
<path d="M1794 405 c0 -72 1 -99 3 -62 2 37 2 96 0 130 -2 34 -3 4 -3 -68z"/>
<path d="M680 362 c0 -4 19 -26 42 -47 l41 -40 -38 48 c-40 49 -45 53 -45 39z"/>
<path d="M2680 362 c0 -4 19 -26 42 -47 l41 -40 -38 48 c-40 49 -45 53 -45 39z"/>
<path d="M4900 362 c0 -4 19 -26 42 -47 l41 -40 -38 48 c-40 49 -45 53 -45 39z"/>
<path d="M1860 320 c11 -16 26 -33 32 -36 7 -4 -1 9 -16 29 -34 44 -46 50 -16 7z"/>
<path d="M6670 320 c11 -16 26 -33 32 -36 7 -4 -1 9 -16 29 -34 44 -46 50 -16 7z"/>
<path d="M2473 233 c31 -2 83 -2 115 0 31 2 5 3 -58 3 -63 0 -89 -1 -57 -3z"/>
<path d="M2473 43 c31 -2 83 -2 115 0 31 2 5 3 -58 3 -63 0 -89 -1 -57 -3z"/>
</g>
<g id="layer104" fill="#cbcbcb" stroke="none">
<path d="M4281 1658 c0 -13 3 -17 6 -10 2 6 10 9 16 5 7 -4 6 1 -2 10 -18 22 -21 21 -20 -5z"/>
<path d="M864 1348 c-4 -7 -3 -8 4 -4 9 5 12 -37 12 -163 l0 -171 68 2 67 2 -62 3 -63 4 0 169 c0 158 -6 191 -26 158z"/>
<path d="M1412 943 l3 -418 2 413 c3 307 6 411 15 406 7 -4 8 -3 4 4 -23 37 -26 -15 -24 -405z"/>
<path d="M5084 1348 c-4 -7 -3 -8 4 -4 9 5 12 -37 12 -163 l0 -171 68 2 67 2 -62 3 -63 4 0 169 c0 158 -6 191 -26 158z"/>
<path d="M2044 1100 c0 -135 2 -190 3 -122 2 67 2 177 0 245 -1 67 -3 12 -3 -123z"/>
<path d="M6854 1100 c0 -135 2 -190 3 -122 2 67 2 177 0 245 -1 67 -3 12 -3 -123z"/>
<path d="M3454 1318 c-4 -7 -3 -8 4 -4 9 5 12 -55 15 -226 l2 -233 3 238 c2 221 -2 260 -24 225z"/>
<path d="M1208 1210 c9 -11 12 -111 12 -429 l0 -415 -42 -46 -43 -45 48 45 47 44 0 417 c0 385 -1 418 -17 430 -15 11 -16 11 -5 -1z"/>
<path d="M5428 1210 c9 -11 12 -111 12 -429 l0 -415 -42 -46 -43 -45 48 45 47 44 0 417 c0 385 -1 418 -17 430 -15 11 -16 11 -5 -1z"/>
<path d="M2375 1020 c0 -103 3 -186 8 -183 4 2 7 85 7 183 0 98 -3 181 -7 183 -5 3 -8 -80 -8 -183z"/>
<path d="M3202 1195 c14 -16 18 -45 21 -130 l3 -110 2 111 c2 104 1 112 -20 130 -23 19 -23 19 -6 -1z"/>
<path d="M3793 1194 c16 -19 18 -40 15 -192 -2 -94 0 -168 5 -165 4 2 7 80 7 172 0 162 -1 169 -22 187 l-23 19 18 -21z"/>
<path d="M7185 1020 c0 -103 3 -186 8 -183 4 2 7 85 7 183 0 98 -3 181 -7 183 -5 3 -8 -80 -8 -183z"/>
<path d="M7762 1194 c16 -19 18 -60 21 -470 l2 -449 3 451 2 451 -22 19 c-23 19 -23 19 -6 -2z"/>
<path d="M6025 730 c0 -250 1 -353 2 -228 2 126 2 330 0 455 -1 126 -2 23 -2 -227z"/>
<path d="M5769 1133 l-24 -28 30 25 c17 14 32 26 34 28 2 1 0 2 -6 2 -5 0 -20 -12 -34 -27z"/>
<path d="M4635 1065 c0 -29 3 -51 8 -48 4 2 7 24 7 48 0 24 -3 46 -7 48 -5 3 -8 -19 -8 -48z"/>
<path d="M2907 1082 l-27 -28 3 -285 2 -284 3 284 2 285 27 28 c15 15 24 28 22 28 -3 0 -17 -13 -32 -28z"/>
<path d="M7466 1081 c-24 -25 -27 -35 -23 -77 l3 -49 2 49 c2 39 8 56 29 78 15 15 24 28 22 28 -3 0 -18 -13 -33 -29z"/>
<path d="M5702 1077 c-22 -23 -22 -24 -19 -413 l2 -389 3 389 c2 385 2 390 24 413 12 13 19 23 16 23 -2 0 -14 -10 -26 -23z"/>
<path d="M6598 1010 c9 -11 12 -91 12 -329 l0 -315 -42 -46 -43 -45 48 45 47 44 0 317 c0 290 -1 318 -17 330 -15 11 -16 11 -5 -1z"/>
<path d="M6274 750 c0 -146 2 -205 3 -132 2 72 2 192 0 265 -1 72 -3 13 -3 -133z"/>
<path d="M272 708 c2 -224 6 -198 10 75 2 81 0 147 -4 147 -5 0 -7 -100 -6 -222z"/>
<path d="M424 670 c0 -102 2 -143 3 -92 2 50 2 134 0 185 -1 50 -3 9 -3 -93z"/>
<path d="M882 648 l2 -163 3 157 4 157 62 4 62 3 -67 2 -68 2 2 -162z"/>
<path d="M5102 648 l2 -163 3 157 4 157 62 4 62 3 -67 2 -68 2 2 -162z"/>
<path d="M4494 610 c0 -69 1 -97 3 -62 2 34 2 90 0 125 -2 34 -3 6 -3 -63z"/>
<path d="M2380 527 l5 -162 3 154 c1 85 -1 158 -5 162 -5 5 -6 -65 -3 -154z"/>
<path d="M3810 482 l5 -207 3 199 c1 110 -1 203 -5 207 -5 5 -6 -85 -3 -199z"/>
<path d="M7190 527 l5 -162 3 154 c1 85 -1 158 -5 162 -5 5 -6 -65 -3 -154z"/>
<path d="M2042 568 c1 -95 5 -83 10 30 2 34 0 62 -4 62 -5 0 -7 -42 -6 -92z"/>
<path d="M3472 468 c2 -194 6 -171 10 65 2 70 0 127 -4 127 -5 0 -7 -87 -6 -192z"/>
<path d="M6852 568 c1 -95 5 -83 10 30 2 34 0 62 -4 62 -5 0 -7 -42 -6 -92z"/>
<path d="M4643 570 c0 -47 2 -66 4 -42 2 23 2 61 0 85 -2 23 -4 4 -4 -43z"/>
<path d="M7442 453 l2 -178 3 172 3 172 63 4 62 3 -67 2 -68 2 2 -177z"/>
<path d="M3222 490 l-2 -124 -42 -46 -43 -45 48 45 48 46 -4 124 -3 125 -2 -125z"/>
</g>


</svg>