<!DOCTYPE svg PUBLIC "-//W3C//DTD SVG 20010904//EN" "http://www.w3.org/TR/2001/REC-SVG-20010904/DTD/svg10.dtd">
<svg version="1.0" xmlns="http://www.w3.org/2000/svg" width="794px" height="178px" viewBox="0 0 7940 1780" preserveAspectRatio="xMidYMid meet">
<g id="layer101" fill="#020202" stroke="none">
<path d="M25 1763 c-12 -11 -15 -24 -9 -42 4 -14 9 -331 11 -704 3 -597 2 -680 -12 -700 -19 -27 -19 -42 1 -61 12 -13 41 -16 147 -16 73 0 138 4 144 8 11 7 35 59 75 162 9 23 13 17 43 -64 19 -49 40 -93 47 -97 7 -5 70 -9 141 -9 l127 0 0 -104 c0 -138 -3 -136 150 -136 155 0 151 -3 150 144 -1 61 -1 117 -1 125 1 11 7 9 24 -7 22 -21 31 -22 237 -22 l214 0 26 25 27 26 17 -26 c16 -25 19 -25 139 -25 82 0 127 4 135 12 8 8 12 66 12 195 0 156 2 183 15 183 13 0 15 -27 15 -179 0 -150 3 -182 16 -195 12 -13 40 -16 144 -16 118 0 130 2 143 20 l14 20 18 -20 c17 -19 31 -20 235 -20 l216 0 39 40 39 40 41 -40 41 -40 215 0 216 0 23 25 23 25 11 -23 c11 -21 18 -22 137 -25 97 -2 129 1 137 11 8 10 13 131 14 402 2 300 6 389 16 393 8 2 12 -11 12 -47 0 -82 16 -91 153 -91 161 0 157 -4 157 165 l0 133 -158 116 c-87 63 -166 118 -174 121 -10 4 -62 -31 -149 -100 -73 -58 -138 -104 -145 -101 -6 2 -73 50 -149 105 -75 56 -141 101 -145 101 -9 0 -64 -41 -179 -133 l-94 -75 -96 72 c-135 103 -147 108 -175 80 -13 -13 -16 -43 -16 -175 0 -135 -2 -159 -15 -159 -13 0 -15 24 -15 159 0 132 -3 162 -16 175 -28 28 -37 24 -159 -74 -38 -31 -76 -60 -83 -64 -8 -5 -46 17 -105 61 -132 100 -144 105 -171 77 -14 -13 -16 -47 -16 -220 0 -175 -2 -204 -15 -204 -13 0 -15 29 -15 204 0 173 -2 207 -16 220 -28 29 -35 25 -211 -115 l-59 -47 -134 100 c-74 54 -143 104 -153 109 -22 13 -36 4 -172 -104 -55 -44 -106 -85 -112 -90 -9 -6 -40 11 -100 55 -116 85 -128 91 -153 78 -21 -11 -23 -18 -20 -62 1 -16 -1 -28 -5 -28 -3 0 -41 26 -83 58 -105 80 -114 84 -140 66 -19 -13 -22 -25 -23 -92 l0 -77 -15 50 c-38 130 -56 155 -97 139 -9 -3 -27 -34 -39 -68 l-23 -61 -3 97 c-2 73 1 105 13 127 8 16 12 37 9 46 -9 23 -253 205 -275 205 -10 0 -25 -7 -34 -17z m255 -210 c0 -6 -4 -15 -10 -18 -6 -4 -10 -99 -10 -252 0 -136 3 -243 7 -239 4 4 35 82 68 173 l61 165 62 -219 c34 -121 62 -225 62 -231 0 -7 5 -12 10 -12 6 0 10 82 10 225 l0 225 85 -62 84 -63 1 -467 c0 -256 3 -473 6 -482 5 -14 -8 -16 -104 -16 l-109 0 -53 146 c-29 80 -56 141 -60 137 -4 -4 -31 -70 -61 -145 l-52 -138 -114 0 -114 0 15 22 c14 20 16 102 16 688 0 366 -4 681 -9 702 l-9 36 109 -81 c60 -45 109 -87 109 -94z m1145 -266 l140 -103 3 -112 3 -112 -106 0 -105 0 0 100 c0 55 -3 100 -6 100 -4 0 -33 -23 -65 -51 l-59 -51 0 -284 0 -284 65 0 65 0 0 60 0 60 105 0 105 0 0 -123 0 -123 -43 -42 -43 -42 -186 0 -186 0 -41 47 -41 48 0 411 0 411 121 96 c67 53 125 97 128 97 3 0 69 -47 146 -103z m1760 0 l140 -103 3 -112 3 -112 -106 0 -105 0 0 100 c0 55 -3 100 -6 100 -4 0 -33 -23 -65 -51 l-59 -51 0 -84 0 -84 60 0 60 0 0 -105 0 -105 -60 0 -60 0 0 -95 0 -95 65 0 65 0 0 60 0 60 105 0 105 0 0 -123 0 -123 -43 -42 -43 -42 -186 0 -186 0 -41 47 -41 48 0 411 0 411 121 96 c67 53 125 97 128 97 3 0 69 -47 146 -103z m586 -3 l138 -99 0 -112 1 -113 -105 0 -105 0 0 100 c0 55 -3 100 -6 100 -3 0 -32 -23 -65 -51 l-59 -52 0 -388 0 -389 -100 0 -100 0 0 458 0 457 123 97 c67 54 126 96 131 95 6 -2 72 -48 147 -103z m-1886 -364 l65 0 0 215 c0 118 3 215 6 215 3 0 50 -34 105 -76 l99 -76 0 -459 0 -459 -105 0 -105 0 0 200 0 200 -65 0 -65 0 0 -200 0 -200 -100 0 -100 0 0 458 0 459 98 77 97 78 3 -216 2 -216 65 0z m580 90 l65 0 0 170 c0 94 3 170 6 170 3 0 50 -34 105 -76 l99 -76 0 -417 0 -417 -43 -42 -43 -42 -186 0 -186 0 -41 47 -41 48 0 411 0 411 98 77 97 78 3 -171 2 -171 65 0z m-1567 241 l102 -74 0 -449 0 -448 -110 0 -110 0 0 526 c0 289 4 524 8 522 5 -1 54 -36 110 -77z m436 -327 c14 -10 50 -14 128 -14 l108 0 0 -125 0 -125 -110 0 c-129 0 -150 -11 -150 -80 0 -29 -4 -40 -15 -40 -13 0 -15 34 -15 248 0 185 3 251 13 261 10 10 13 0 17 -49 4 -46 10 -65 24 -76z m1738 64 c3 -40 0 -48 -14 -48 -15 0 -18 9 -18 48 0 26 6 54 13 61 14 14 14 13 19 -61z m258 -203 l0 -125 -87 0 -88 0 0 125 0 125 88 0 87 0 0 -125z m-258 -200 c-3 -30 -9 -45 -18 -45 -10 0 -14 13 -14 45 0 36 3 45 18 45 14 0 17 -7 14 -45z m-2072 -445 l0 -90 -110 0 -110 0 0 90 0 90 110 0 110 0 0 -90z"/>
<path d="M2400 650 l0 -160 65 0 65 0 0 160 0 160 -65 0 -65 0 0 -160z m80 0 c0 -91 -3 -110 -15 -110 -12 0 -15 19 -15 110 0 91 3 110 15 110 12 0 15 -19 15 -110z"/>
<path d="M4370 1740 c-15 -15 -19 -27 -13 -38 4 -9 9 -318 11 -685 3 -659 2 -668 -18 -694 -24 -31 -25 -46 -4 -67 13 -14 50 -16 257 -16 l242 1 65 39 65 40 33 -40 34 -40 232 0 c220 0 234 1 251 20 l18 20 14 -20 c13 -18 25 -20 141 -20 70 0 133 4 139 8 7 4 19 26 27 47 13 35 15 37 15 14 1 -15 9 -36 19 -48 16 -20 24 -22 142 -19 117 3 125 4 136 25 l11 23 23 -25 23 -25 217 0 217 0 23 25 23 25 11 -23 c11 -21 18 -22 137 -25 97 -2 129 1 137 11 8 10 13 131 14 402 2 300 6 389 16 393 9 3 12 -79 12 -386 0 -342 2 -393 16 -406 13 -14 64 -16 398 -16 l382 0 52 53 52 53 0 336 c0 284 -2 339 -15 351 -18 19 -549 385 -567 392 -8 3 -22 -1 -33 -9 -16 -11 -21 -30 -25 -91 l-5 -77 -139 101 c-76 56 -142 101 -147 101 -4 0 -65 -45 -134 -100 -68 -55 -128 -100 -132 -100 -3 0 -47 31 -97 68 -131 98 -143 104 -170 76 -13 -13 -16 -43 -16 -175 0 -135 -2 -159 -15 -159 -13 0 -15 24 -15 159 0 132 -3 162 -16 175 -28 29 -42 21 -192 -101 -30 -24 -57 -43 -62 -43 -4 0 -47 32 -96 71 -151 121 -151 121 -203 -36 -8 -27 -10 -23 -10 32 -1 62 -16 93 -46 93 -7 0 -62 -36 -121 -80 -60 -44 -111 -80 -114 -80 -3 0 -54 32 -114 70 -61 39 -113 70 -118 70 -4 0 -17 -9 -28 -20 -19 -19 -20 -33 -20 -214 0 -163 -2 -195 -15 -200 -13 -5 -15 22 -15 204 0 203 -1 209 -22 224 -26 18 -33 15 -151 -70 -48 -35 -89 -64 -91 -64 -2 0 -2 8 0 18 7 24 -7 38 -124 131 -130 102 -133 104 -160 85 -21 -15 -22 -21 -22 -230 0 -207 -1 -214 -20 -214 -19 0 -20 7 -20 220 0 181 3 225 15 244 9 13 13 30 9 39 -6 16 -240 202 -267 213 -9 3 -25 -4 -37 -16z m158 -135 c67 -51 89 -74 84 -85 -4 -8 -8 -131 -10 -272 l-3 -258 71 0 70 0 0 220 c0 121 2 220 5 220 3 0 49 -35 103 -77 l97 -78 -3 -460 -3 -460 -64 -37 -64 -38 -210 0 c-193 0 -233 5 -201 25 7 4 10 247 10 696 0 583 2 689 14 682 7 -4 54 -39 104 -78z m2633 -321 l138 -99 0 -452 1 -453 -105 0 -105 0 0 440 c0 242 -3 440 -6 440 -3 0 -32 -23 -65 -51 l-59 -52 0 -388 0 -389 -100 0 -100 0 0 458 0 457 123 97 c67 54 126 96 131 95 6 -2 72 -48 147 -103z m474 -107 l250 -173 3 -319 2 -319 -42 -43 -42 -43 -228 0 -228 0 0 545 c0 517 1 545 18 536 9 -6 130 -88 267 -184z m-1819 -207 c6 14 35 105 64 203 38 125 58 176 67 173 7 -3 51 -36 98 -73 l85 -68 0 -462 0 -463 -100 0 -100 0 -2 177 -3 176 -60 -176 -60 -177 -107 0 -108 0 0 458 0 457 103 78 102 78 5 -203 c4 -160 7 -198 16 -178z m629 40 l65 0 0 170 c0 94 3 170 6 170 3 0 50 -34 105 -76 l99 -76 0 -417 0 -417 -43 -42 -43 -42 -186 0 -186 0 -41 47 -41 48 0 411 0 411 98 77 97 78 3 -171 2 -171 65 0z m-1168 -110 l63 39 2 196 3 197 103 -67 102 -67 0 -179 0 -179 -70 -37 c-38 -21 -70 -40 -70 -43 0 -3 32 -23 70 -44 l70 -37 0 -156 0 -156 -36 -43 -35 -44 -204 0 -203 0 -31 39 -31 39 0 419 0 419 98 70 97 70 5 -238 5 -238 62 40z"/>
<path d="M4600 640 l0 -150 70 0 70 0 0 150 0 150 -70 0 -70 0 0 -150z m90 0 c0 -93 -1 -100 -20 -100 -19 0 -20 7 -20 100 0 93 1 100 20 100 19 0 20 -7 20 -100z"/>
<path d="M7550 751 l0 -261 65 0 65 0 0 219 0 218 -37 25 c-21 14 -50 33 -65 42 l-28 18 0 -261z m80 -32 c0 -152 -2 -179 -15 -179 -13 0 -15 28 -15 191 0 169 2 190 15 179 12 -10 15 -45 15 -191z"/>
<path d="M6380 650 l0 -160 65 0 65 0 0 160 0 160 -65 0 -65 0 0 -160z m80 0 c0 -91 -3 -110 -15 -110 -12 0 -15 19 -15 110 0 91 3 110 15 110 12 0 15 -19 15 -110z"/>
<path d="M5210 570 l0 -90 65 0 65 0 0 54 0 55 -59 35 c-32 20 -61 36 -65 36 -3 0 -6 -40 -6 -90z m80 -26 c0 -8 -7 -14 -15 -14 -10 0 -15 10 -15 26 0 22 2 25 15 14 8 -7 15 -19 15 -26z"/>
</g>
<g id="layer102" fill="#4c4c4c" stroke="none">
<path d="M54 1724 c3 -9 6 -23 7 -32 1 -12 3 -10 7 5 7 20 13 17 107 -53 98 -73 117 -95 96 -109 -7 -4 -11 -90 -11 -253 0 -228 5 -273 25 -202 5 19 4 21 -4 10 -8 -11 -11 51 -11 212 0 141 4 229 10 233 24 15 3 37 -105 119 -63 47 -117 86 -121 86 -3 0 -3 -7 0 -16z"/>
<path d="M4400 1689 c0 -16 3 -20 8 -11 13 19 214 -137 204 -158 -4 -8 -8 -131 -10 -272 l-3 -258 71 0 70 0 0 220 c0 121 2 220 5 220 3 0 49 -35 103 -77 l97 -78 -3 -460 -2 -460 -60 -34 c-33 -19 -58 -36 -56 -38 2 -2 30 12 62 31 l59 36 5 464 5 465 -110 87 -110 87 -3 -227 -2 -226 -61 0 -60 0 4 253 c2 138 5 259 8 268 4 16 -43 58 -183 163 l-38 28 0 -23z"/>
<path d="M377 1356 c-9 -27 -15 -51 -13 -54 3 -2 10 15 17 38 l13 43 12 -34 c7 -19 13 -27 13 -19 0 8 -6 28 -13 45 l-12 30 -17 -49z"/>
<path d="M1159 1310 c-63 -51 -118 -97 -124 -103 -16 -17 9 1 129 96 59 48 111 87 115 87 3 0 69 -47 146 -103 l140 -103 6 -115 5 -114 2 115 1 115 -141 103 c-77 57 -146 106 -153 108 -6 3 -63 -36 -126 -86z"/>
<path d="M2919 1310 c-63 -51 -118 -97 -124 -103 -16 -17 9 1 129 96 59 48 111 87 115 87 3 0 69 -47 146 -103 l140 -103 6 -115 5 -114 2 115 1 115 -141 103 c-77 57 -146 106 -153 108 -6 3 -63 -36 -126 -86z"/>
<path d="M3500 1309 c-125 -99 -137 -109 -128 -109 3 0 59 43 124 95 66 52 123 94 128 92 6 -2 72 -48 147 -103 l138 -99 3 -115 4 -115 2 115 2 116 -141 102 c-77 57 -146 105 -152 108 -7 2 -64 -37 -127 -87z"/>
<path d="M6890 1309 c-125 -99 -137 -109 -128 -109 3 0 59 43 124 95 66 52 123 94 128 92 6 -2 72 -48 147 -103 l138 -99 3 -455 3 -455 3 455 2 456 -141 102 c-77 57 -146 105 -152 108 -7 2 -64 -37 -127 -87z"/>
<path d="M530 1173 c0 -115 -3 -218 -6 -230 -4 -14 -2 -23 5 -23 8 0 11 66 11 225 l0 225 85 -62 84 -63 1 -470 c0 -259 4 -475 8 -482 4 -6 6 206 5 470 l-3 482 -90 67 c-49 38 -92 68 -95 68 -3 0 -5 -93 -5 -207z"/>
<path d="M7342 829 l3 -554 5 548 5 547 265 -183 265 -183 3 -319 2 -319 -42 -45 -43 -46 48 45 47 44 0 321 0 320 -266 183 c-146 101 -272 186 -280 189 -12 4 -14 -78 -12 -548z"/>
<path d="M1730 1294 c-52 -41 -99 -81 -105 -87 -15 -17 9 1 105 78 l85 67 3 -216 2 -216 65 0 65 0 0 215 c0 118 3 215 6 215 3 0 50 -34 105 -76 l99 -76 3 -461 2 -462 2 465 2 465 -112 83 -112 83 -3 -220 -2 -221 -55 0 -55 0 -2 220 -3 220 -95 -76z"/>
<path d="M2310 1294 c-52 -41 -99 -81 -105 -87 -15 -17 9 1 105 78 l85 67 3 -171 2 -171 65 0 65 0 0 170 c0 94 3 170 6 170 3 0 50 -34 105 -76 l99 -76 0 -416 0 -416 -42 -46 -43 -45 48 45 47 44 0 421 -1 420 -112 83 -112 83 -3 -175 -2 -176 -55 0 -55 0 -2 175 -3 175 -95 -76z"/>
<path d="M5705 1294 c-103 -78 -123 -94 -113 -94 3 0 50 34 104 76 l99 76 5 -204 c4 -173 7 -199 17 -175 7 15 15 40 18 55 4 21 2 19 -9 -8 -13 -32 -14 -21 -18 157 l-3 192 -100 -75z"/>
<path d="M5920 1334 c-7 -19 -10 -38 -7 -40 3 -3 8 8 12 25 4 17 10 31 15 31 4 0 47 -32 96 -71 l89 -71 5 -466 5 -467 3 466 2 466 -87 69 c-132 105 -120 100 -133 58z"/>
<path d="M6290 1294 c-52 -41 -99 -81 -105 -87 -15 -17 9 1 105 78 l85 67 3 -171 2 -171 65 0 65 0 0 170 c0 94 3 170 6 170 3 0 50 -34 105 -76 l99 -76 0 -416 0 -416 -42 -46 -43 -45 48 45 47 44 0 421 -1 420 -112 83 -112 83 -3 -175 -2 -176 -55 0 -55 0 -2 175 -3 175 -95 -76z"/>
<path d="M5111 1280 c-51 -38 -96 -72 -100 -76 -12 -14 24 10 111 73 l88 63 2 -240 3 -240 62 40 63 39 2 196 3 197 103 -67 102 -67 0 -179 0 -179 -70 -37 c-38 -21 -70 -40 -70 -43 0 -3 32 -23 70 -44 l70 -37 0 -156 0 -156 -36 -46 -36 -46 41 44 41 44 -2 161 -3 161 -62 34 c-35 19 -63 37 -63 40 0 3 29 22 65 41 l65 35 0 183 0 182 -106 70 c-58 39 -110 70 -115 70 -5 0 -9 -87 -9 -199 l0 -199 -50 -31 c-28 -17 -52 -31 -55 -31 -3 0 -5 106 -5 235 0 129 -3 235 -7 235 -5 -1 -50 -32 -102 -70z"/>
<path d="M875 1267 c101 -74 139 -99 120 -80 -19 19 -204 153 -211 153 -5 0 37 -33 91 -73z"/>
<path d="M426 1280 c4 -19 11 -44 15 -55 6 -14 7 -9 3 15 -4 19 -11 44 -15 55 -6 14 -7 9 -3 -15z"/>
<path d="M341 1259 c-6 -18 -9 -34 -7 -36 2 -2 9 10 15 28 6 18 9 34 7 36 -2 2 -9 -10 -15 -28z"/>
<path d="M5891 1239 c-7 -22 -11 -43 -8 -45 2 -2 9 14 16 37 7 22 11 43 8 45 -2 2 -9 -14 -16 -37z"/>
<path d="M306 1164 c-9 -26 -14 -49 -12 -51 2 -2 11 17 20 43 9 26 14 49 12 51 -2 2 -11 -17 -20 -43z"/>
<path d="M451 1190 c0 -8 4 -24 9 -35 5 -13 9 -14 9 -5 0 8 -4 24 -9 35 -5 13 -9 14 -9 5z"/>
<path d="M1287 1107 l-58 -52 1 -282 0 -283 65 0 65 0 0 60 0 60 105 0 105 0 0 -122 0 -122 -42 -46 -43 -45 48 45 48 45 -3 125 -3 125 -110 0 -110 0 -3 -58 -3 -57 -54 0 -55 0 0 278 0 278 55 47 54 48 4 -98 3 -98 2 103 c1 56 -1 102 -5 102 -5 0 -34 -24 -66 -53z"/>
<path d="M3047 1107 l-58 -52 3 -85 4 -85 2 86 2 85 55 47 54 48 4 -98 3 -98 2 103 c1 56 -1 102 -5 102 -5 0 -34 -24 -66 -53z"/>
<path d="M3627 1107 l-57 -52 2 -390 3 -390 3 390 2 390 49 43 c28 23 52 42 55 42 3 0 7 -42 9 -92 l3 -93 2 103 c1 56 -1 102 -5 102 -5 -1 -34 -24 -66 -53z"/>
<path d="M7017 1107 l-57 -52 2 -390 3 -390 3 390 2 390 49 43 c28 23 52 42 55 42 3 0 7 -195 9 -432 l2 -433 3 443 c1 243 -1 442 -5 442 -5 -1 -34 -24 -66 -53z"/>
<path d="M5856 1124 c-4 -14 -5 -28 -3 -31 3 -2 8 8 11 23 4 14 5 28 3 31 -3 2 -8 -8 -11 -23z"/>
<path d="M471 1120 c0 -8 4 -24 9 -35 5 -13 9 -14 9 -5 0 8 -4 24 -9 35 -5 13 -9 14 -9 5z"/>
<path d="M491 1050 c0 -8 4 -24 9 -35 5 -13 9 -14 9 -5 0 8 -4 24 -9 35 -5 13 -9 14 -9 5z"/>
<path d="M7550 751 l0 -261 65 0 65 0 0 219 0 218 -37 25 c-21 14 -50 33 -65 42 l-28 18 0 -261z m70 207 l50 -33 0 -212 0 -213 -55 0 -55 0 0 245 c0 135 2 245 5 245 3 0 28 -15 55 -32z"/>
<path d="M3110 785 l0 -105 -60 0 -60 0 0 -95 0 -95 65 0 65 0 0 60 0 60 105 0 105 0 0 -122 0 -122 -42 -46 -43 -45 48 45 48 45 -3 125 -3 125 -110 0 -110 0 -3 -57 -3 -58 -54 0 -55 0 0 85 0 85 60 0 60 0 0 110 c0 61 -2 110 -5 110 -3 0 -5 -47 -5 -105z"/>
<path d="M4600 640 l0 -150 70 0 70 0 0 150 0 150 -70 0 -70 0 0 -150z m130 0 l0 -140 -60 0 -60 0 0 140 0 140 60 0 60 0 0 -140z"/>
<path d="M5210 570 l0 -90 65 0 65 0 0 54 c0 30 -3 57 -7 59 -5 3 -6 -19 -5 -49 l4 -54 -56 0 -56 0 0 80 0 81 45 -27 c25 -14 45 -24 45 -21 0 6 -85 57 -94 57 -3 0 -6 -40 -6 -90z"/>
<path d="M387 564 c-10 -10 -9 -26 2 -20 5 3 12 -6 15 -20 4 -15 9 -24 12 -21 3 2 -1 19 -8 37 -7 17 -16 28 -21 24z"/>
<path d="M5851 418 c-23 -68 -41 -128 -40 -133 0 -6 20 48 45 119 24 71 42 131 40 133 -2 3 -22 -51 -45 -119z"/>
<path d="M341 449 c-17 -45 -30 -83 -28 -85 2 -2 18 33 36 77 17 45 30 83 28 85 -2 2 -18 -33 -36 -77z"/>
<path d="M426 470 c4 -14 13 -38 20 -55 11 -24 13 -25 8 -5 -4 14 -13 39 -20 55 -11 24 -13 25 -8 5z"/>
<path d="M466 360 c3 -14 11 -32 16 -40 6 -10 7 -7 2 10 -3 14 -11 32 -16 40 -6 10 -7 7 -2 -10z"/>
<path d="M1030 362 c0 -4 19 -26 42 -47 l41 -40 -38 48 c-40 49 -45 53 -45 39z"/>
<path d="M2200 362 c0 -4 19 -26 42 -47 l41 -40 -38 48 c-40 49 -45 53 -45 39z"/>
<path d="M2790 362 c0 -4 19 -26 42 -47 l41 -40 -38 48 c-40 49 -45 53 -45 39z"/>
<path d="M6180 362 c0 -4 19 -26 42 -47 l41 -40 -38 48 c-40 49 -45 53 -45 39z"/>
</g>
<g id="layer103" fill="#7a7a7a" stroke="none">
<path d="M64 1715 c-3 -8 -4 -20 -1 -27 3 -7 6 -2 6 11 1 21 3 22 19 10 15 -13 16 -12 3 4 -16 21 -20 21 -27 2z"/>
<path d="M4400 1688 c0 -16 3 -19 8 -10 7 10 15 7 37 -10 16 -12 26 -17 22 -11 -4 7 -21 22 -37 33 l-30 21 0 -23z"/>
<path d="M110 1697 c0 -2 35 -30 78 -62 42 -32 83 -65 90 -73 6 -9 12 -11 12 -5 0 6 -26 30 -57 54 -32 23 -73 54 -90 67 -18 13 -33 22 -33 19z"/>
<path d="M4480 1647 c0 -3 18 -20 40 -37 22 -17 40 -29 40 -27 0 3 -18 20 -40 37 -22 17 -40 29 -40 27z"/>
<path d="M4593 1556 c23 -21 26 -29 17 -45 -6 -12 -10 -116 -10 -270 l0 -251 70 0 70 0 0 220 c0 198 5 242 24 212 7 -11 126 -104 126 -99 0 3 -35 33 -77 67 l-78 62 -3 -226 -2 -226 -61 0 -60 0 3 253 c2 138 6 259 11 267 5 11 -2 22 -25 39 l-33 22 28 -25z"/>
<path d="M267 1533 c-4 -3 -7 -117 -7 -251 0 -135 3 -243 6 -240 4 5 12 498 8 498 0 0 -4 -3 -7 -7z"/>
<path d="M1264 1388 c-4 -7 -3 -8 5 -4 6 4 26 -2 44 -14 l32 -22 -30 26 c-34 29 -41 31 -51 14z"/>
<path d="M3024 1388 c-4 -7 -3 -8 5 -4 6 4 26 -2 44 -14 l32 -22 -30 26 c-34 29 -41 31 -51 14z"/>
<path d="M3495 1304 c-66 -53 -122 -98 -125 -102 -15 -17 37 21 125 92 55 43 106 84 113 89 13 10 21 6 110 -61 17 -13 32 -22 32 -19 0 6 -106 86 -122 92 -7 3 -67 -38 -133 -91z"/>
<path d="M6885 1304 c-66 -53 -122 -98 -125 -102 -15 -17 37 21 125 92 55 43 106 84 113 89 13 10 21 6 110 -61 17 -13 32 -22 32 -19 0 6 -106 86 -122 92 -7 3 -67 -38 -133 -91z"/>
<path d="M530 1173 c0 -115 -3 -218 -6 -230 -4 -14 -2 -23 5 -23 8 0 11 66 11 225 l0 225 85 -62 84 -63 3 -475 3 -475 3 475 2 475 -90 68 c-49 37 -92 67 -95 67 -3 0 -5 -93 -5 -207z"/>
<path d="M371 1339 c-6 -18 -9 -34 -7 -36 2 -2 9 10 15 28 6 18 9 34 7 36 -2 2 -9 -10 -15 -28z"/>
<path d="M5790 1355 c-9 -11 -10 -16 -2 -11 9 6 12 -36 12 -195 0 -112 3 -199 8 -193 4 5 5 101 2 213 -4 183 -7 202 -20 186z"/>
<path d="M1724 1289 c-49 -39 -93 -76 -99 -82 -15 -17 9 1 105 78 l85 67 3 -216 2 -216 65 0 64 0 3 220 c2 121 0 220 -4 220 -5 0 -8 -97 -8 -215 l0 -215 -55 0 -55 0 0 215 c0 118 -4 215 -9 215 -5 0 -48 -32 -97 -71z"/>
<path d="M2304 1289 c-49 -39 -93 -76 -99 -82 -15 -17 9 1 105 78 l85 67 3 -171 2 -171 65 0 64 0 3 175 c2 96 0 175 -4 175 -5 0 -8 -76 -8 -170 l0 -170 -55 0 -55 0 0 170 c0 94 -4 170 -9 170 -5 0 -48 -32 -97 -71z"/>
<path d="M6284 1289 c-49 -39 -93 -76 -99 -82 -15 -17 9 1 105 78 l85 67 3 -171 2 -171 65 0 64 0 3 175 c2 96 0 175 -4 175 -5 0 -8 -76 -8 -170 l0 -170 -55 0 -55 0 0 170 c0 94 -4 170 -9 170 -5 0 -48 -32 -97 -71z"/>
<path d="M1375 1326 c17 -14 50 -40 75 -57 35 -23 38 -25 15 -5 -16 14 -50 40 -75 57 -35 23 -38 25 -15 5z"/>
<path d="M3135 1326 c17 -14 50 -40 75 -57 35 -23 38 -25 15 -5 -16 14 -50 40 -75 57 -35 23 -38 25 -15 5z"/>
<path d="M5145 1304 c-32 -24 -64 -49 -70 -56 -12 -14 -9 -12 77 51 l58 41 2 -240 c3 -239 3 -241 23 -225 16 12 17 14 3 9 -17 -6 -18 9 -18 230 0 130 -3 236 -7 235 -5 0 -35 -20 -68 -45z"/>
<path d="M5330 1141 l0 -199 -35 -22 c-19 -12 -35 -24 -35 -26 0 -6 14 2 53 28 l27 19 0 195 0 195 23 -11 c21 -11 21 -10 3 4 -11 9 -23 16 -28 16 -4 0 -8 -90 -8 -199z"/>
<path d="M7410 1336 c0 -3 27 -24 60 -46 33 -22 60 -38 60 -36 0 3 -27 24 -60 46 -33 22 -60 38 -60 36z"/>
<path d="M802 1324 c4 -5 28 -25 54 -44 26 -18 45 -29 42 -24 -4 5 -28 25 -54 44 -26 18 -45 29 -42 24z"/>
<path d="M4920 1298 l25 -23 -3 -464 c-1 -256 0 -462 3 -460 2 3 5 213 5 468 l1 463 -28 20 -28 20 25 -24z"/>
<path d="M5660 1259 c-69 -53 -84 -67 -60 -54 23 13 130 96 130 101 0 7 -1 6 -70 -47z"/>
<path d="M1095 1259 c-61 -50 -80 -70 -40 -41 37 25 102 81 95 81 -3 0 -27 -18 -55 -40z"/>
<path d="M2855 1259 c-61 -50 -80 -70 -40 -41 37 25 102 81 95 81 -3 0 -27 -18 -55 -40z"/>
<path d="M3785 1276 c17 -14 50 -40 75 -57 35 -23 38 -25 15 -5 -16 14 -50 40 -75 57 -35 23 -38 25 -15 5z"/>
<path d="M6020 1297 c0 -3 24 -24 53 -47 l52 -42 5 -466 5 -467 3 466 2 466 -60 47 c-33 26 -60 45 -60 43z"/>
<path d="M7175 1276 c17 -14 50 -40 75 -57 35 -23 38 -25 15 -5 -16 14 -50 40 -75 57 -35 23 -38 25 -15 5z"/>
<path d="M5420 1287 c0 -3 29 -24 65 -47 l65 -42 0 -179 0 -178 -30 -16 c-16 -9 -30 -18 -30 -21 0 -3 15 3 33 13 l32 19 3 182 2 181 -57 39 c-71 47 -83 54 -83 49z"/>
<path d="M5896 1254 c-4 -14 -5 -28 -3 -31 3 -2 8 8 11 23 4 14 5 28 3 31 -3 2 -8 -8 -11 -23z"/>
<path d="M2122 1228 l38 -33 3 -460 2 -460 3 462 2 461 -42 32 -43 32 37 -34z"/>
<path d="M2703 1228 l37 -33 0 -415 0 -414 -42 -46 -43 -45 48 45 47 44 0 417 0 417 -42 32 -43 32 38 -34z"/>
<path d="M6683 1228 l37 -33 0 -415 0 -414 -42 -46 -43 -45 48 45 47 44 0 417 0 417 -42 32 -43 32 38 -34z"/>
<path d="M935 1225 c30 -26 65 -49 65 -42 0 2 -21 18 -47 36 -36 25 -41 26 -18 6z"/>
<path d="M7540 1246 c0 -3 27 -24 60 -46 33 -22 60 -38 60 -36 0 3 -27 24 -60 46 -33 22 -60 38 -60 36z"/>
<path d="M1532 1209 l38 -34 3 -110 3 -110 2 111 c2 119 2 120 -63 163 -11 8 -3 -1 17 -20z"/>
<path d="M3292 1209 l38 -34 3 -110 3 -110 2 111 c2 119 2 120 -63 163 -11 8 -3 -1 17 -20z"/>
<path d="M3914 1075 c0 -66 1 -92 3 -57 2 34 2 88 0 120 -2 31 -3 3 -3 -63z"/>
<path d="M7305 735 c0 -253 1 -355 2 -227 2 128 2 335 0 460 -1 125 -2 20 -2 -233z"/>
<path d="M1287 1107 l-58 -52 1 -282 0 -283 65 0 65 0 -2 63 -2 62 -3 -58 -4 -57 -54 0 -55 0 0 279 0 279 55 46 54 47 4 -98 3 -98 2 103 c1 56 -1 102 -5 102 -5 0 -34 -24 -66 -53z"/>
<path d="M3047 1107 l-58 -52 3 -85 4 -85 2 86 2 87 55 46 54 47 4 -98 3 -98 2 103 c1 56 -1 102 -5 102 -5 0 -34 -24 -66 -53z"/>
<path d="M3627 1107 l-57 -52 2 -390 3 -390 3 391 2 391 61 51 c34 29 57 52 52 52 -4 -1 -34 -24 -66 -53z"/>
<path d="M7017 1107 l-57 -52 2 -390 3 -390 3 391 2 391 61 51 c34 29 57 52 52 52 -4 -1 -34 -24 -66 -53z"/>
<path d="M7700 1136 c0 -3 20 -19 45 -36 25 -17 45 -29 45 -26 0 3 -20 19 -45 36 -25 17 -45 29 -45 26z"/>
<path d="M7858 1024 l32 -29 0 -315 0 -314 -42 -46 -43 -45 48 45 47 44 -2 319 -3 319 -35 26 -35 25 33 -29z"/>
<path d="M7550 751 l0 -261 65 0 65 0 0 219 c0 121 -3 222 -7 224 -5 3 -7 -93 -5 -214 l3 -219 -56 0 -55 0 0 245 c0 135 3 245 6 245 3 0 18 -8 32 -18 15 -10 34 -22 42 -26 22 -11 -29 29 -62 48 l-28 17 0 -260z"/>
<path d="M2400 650 l0 -160 65 0 65 0 0 160 0 160 -65 0 -65 0 0 -160z m120 0 l0 -150 -55 0 -55 0 0 150 0 150 55 0 55 0 0 -150z"/>
<path d="M6380 650 l0 -160 65 0 65 0 0 160 0 160 -65 0 -65 0 0 -160z m120 0 l0 -150 -55 0 -55 0 0 150 0 150 55 0 55 0 0 -150z"/>
<path d="M5443 783 c-36 -18 -41 -28 -19 -36 10 -4 13 -1 9 9 -3 7 -1 14 4 14 5 0 18 7 29 15 24 19 17 18 -23 -2z"/>
<path d="M4602 638 l2 -153 3 148 4 147 59 0 59 0 4 -147 3 -148 2 153 2 152 -70 0 -70 0 2 -152z"/>
<path d="M5450 735 c0 -2 18 -14 40 -25 22 -11 40 -18 40 -15 0 2 -18 14 -40 25 -22 11 -40 18 -40 15z"/>
<path d="M5548 528 l3 -160 -36 -46 -37 -47 41 45 41 45 0 157 c0 86 -3 159 -7 161 -5 3 -7 -67 -5 -155z"/>
<path d="M1822 478 l3 -203 2 198 3 197 55 0 55 0 3 -197 2 -198 3 203 2 202 -65 0 -65 0 2 -202z"/>
<path d="M2990 585 l0 -95 65 0 65 0 -2 63 -2 62 -3 -57 -4 -58 -54 0 -55 0 0 85 0 84 58 4 57 3 -62 2 -63 2 0 -95z"/>
<path d="M5210 570 l0 -90 65 0 65 0 0 54 c0 30 -3 57 -7 59 -5 3 -6 -19 -5 -49 l4 -54 -56 0 -56 0 0 80 c0 80 0 81 23 70 21 -11 21 -10 3 4 -11 9 -23 16 -28 16 -4 0 -8 -40 -8 -90z"/>
<path d="M1572 490 l-2 -124 -42 -46 -43 -45 48 45 48 46 -4 124 -3 125 -2 -125z"/>
<path d="M3332 490 l-2 -124 -42 -46 -43 -45 48 45 48 46 -4 124 -3 125 -2 -125z"/>
<path d="M7344 430 c0 -85 2 -120 3 -77 2 42 2 112 0 155 -1 42 -3 7 -3 -78z"/>
<path d="M387 564 c-11 -11 -8 -26 3 -19 6 3 10 1 10 -6 0 -7 3 -10 6 -6 3 3 2 13 -3 22 -5 8 -12 12 -16 9z"/>
<path d="M5851 419 c-22 -68 -39 -124 -37 -126 2 -2 22 51 45 118 22 68 39 124 37 126 -2 2 -22 -51 -45 -118z"/>
<path d="M1048 343 c11 -16 30 -37 43 -48 12 -11 5 1 -16 28 -43 52 -57 63 -27 20z"/>
<path d="M2218 343 c11 -16 30 -37 43 -48 12 -11 5 1 -16 28 -43 52 -57 63 -27 20z"/>
<path d="M2808 343 c11 -16 30 -37 43 -48 12 -11 5 1 -16 28 -43 52 -57 63 -27 20z"/>
<path d="M6198 343 c11 -16 30 -37 43 -48 12 -11 5 1 -16 28 -43 52 -57 63 -27 20z"/>
<path d="M5030 320 c11 -16 26 -33 32 -36 7 -4 -1 9 -16 29 -34 44 -46 50 -16 7z"/>
<path d="M833 233 c31 -2 83 -2 115 0 31 2 5 3 -58 3 -63 0 -89 -1 -57 -3z"/>
<path d="M833 43 c31 -2 83 -2 115 0 31 2 5 3 -58 3 -63 0 -89 -1 -57 -3z"/>
</g>
<g id="layer104" fill="#bbbbbb" stroke="none">
<path d="M4602 1248 l-2 -258 73 2 72 2 -67 3 -68 4 -3 252 -2 252 -3 -257z"/>
<path d="M530 1155 c-3 -126 -4 -232 -2 -234 10 -17 12 35 10 235 l-3 229 -5 -230z"/>
<path d="M5784 1348 c-4 -7 -3 -8 4 -4 9 5 12 -44 12 -194 0 -111 3 -199 8 -197 10 7 3 407 -8 407 -5 0 -12 -5 -16 -12z"/>
<path d="M3914 1070 c0 -63 1 -89 3 -57 2 31 2 83 0 115 -2 31 -3 5 -3 -58z"/>
<path d="M7305 730 c0 -250 1 -353 2 -228 2 126 2 330 0 455 -1 126 -2 23 -2 -227z"/>
<path d="M3659 1133 l-24 -28 30 25 c17 14 32 26 34 28 2 1 0 2 -6 2 -5 0 -20 -12 -34 -27z"/>
<path d="M7049 1133 l-24 -28 30 25 c17 14 32 26 34 28 2 1 0 2 -6 2 -5 0 -20 -12 -34 -27z"/>
<path d="M1254 1078 l-29 -33 33 29 c30 28 37 36 29 36 -2 0 -16 -15 -33 -32z"/>
<path d="M3014 1078 l-29 -33 33 29 c30 28 37 36 29 36 -2 0 -16 -15 -33 -32z"/>
<path d="M3592 1077 c-22 -23 -22 -24 -19 -413 l2 -389 3 389 c2 385 2 390 24 413 12 13 19 23 16 23 -2 0 -14 -10 -26 -23z"/>
<path d="M6982 1077 c-22 -23 -22 -24 -19 -413 l2 -389 3 389 c2 385 2 390 24 413 12 13 19 23 16 23 -2 0 -14 -10 -26 -23z"/>
<path d="M2427 1013 c18 -2 50 -2 70 0 21 2 7 4 -32 4 -38 0 -55 -2 -38 -4z"/>
<path d="M6407 1013 c18 -2 50 -2 70 0 21 2 7 4 -32 4 -38 0 -55 -2 -38 -4z"/>
<path d="M1847 923 c18 -2 50 -2 70 0 21 2 7 4 -32 4 -38 0 -55 -2 -38 -4z"/>
<path d="M2427 803 c18 -2 50 -2 70 0 21 2 7 4 -32 4 -38 0 -55 -2 -38 -4z"/>
<path d="M6407 803 c18 -2 50 -2 70 0 21 2 7 4 -32 4 -38 0 -55 -2 -38 -4z"/>
<path d="M4604 640 c0 -85 2 -120 3 -77 2 42 2 112 0 155 -1 42 -3 7 -3 -78z"/>
<path d="M3018 673 c17 -2 47 -2 65 0 17 2 3 4 -33 4 -36 0 -50 -2 -32 -4z"/>
<path d="M1525 318 l-40 -43 43 40 c39 36 47 45 39 45 -2 0 -21 -19 -42 -42z"/>
<path d="M2695 318 l-40 -43 43 40 c23 21 42 40 42 42 0 8 -9 0 -45 -39z"/>
<path d="M3285 318 l-40 -43 43 40 c39 36 47 45 39 45 -2 0 -21 -19 -42 -42z"/>
<path d="M6675 318 l-40 -43 43 40 c39 36 47 45 39 45 -2 0 -21 -19 -42 -42z"/>
<path d="M7845 318 l-40 -43 43 40 c39 36 47 45 39 45 -2 0 -21 -19 -42 -42z"/>
</g>


</svg>